<?xml version="1.0" encoding="UTF-8"?>
<!DOCTYPE svg PUBLIC "-//W3C//DTD SVG 1.1//EN" "http://www.w3.org/Graphics/SVG/1.1/DTD/svg11.dtd">
<svg xmlns="http://www.w3.org/2000/svg" version="1.1" width="75px" height="75px" style="shape-rendering:geometricPrecision; text-rendering:geometricPrecision; image-rendering:optimizeQuality; fill-rule:evenodd; clip-rule:evenodd" xmlns:xlink="http://www.w3.org/1999/xlink">
<g><path style="opacity:0.882" fill="#2b3135" d="M 35.5,-0.5 C 36.5,-0.5 37.5,-0.5 38.5,-0.5C 43.652,1.51247 48.9853,3.34581 54.5,5C 60.233,8.52611 65.5663,12.5261 70.5,17C 71.0569,21.8039 72.3903,26.3039 74.5,30.5C 74.5,32.8333 74.5,35.1667 74.5,37.5C 73.1667,37.8333 73.1667,38.1667 74.5,38.5C 74.5,39.8333 74.5,41.1667 74.5,42.5C 73.8333,43.8333 73.1667,45.1667 72.5,46.5C 72.5,45.5 72.5,44.5 72.5,43.5C 71.934,38.9046 71.7673,34.2379 72,29.5C 70.4113,25.9691 69.2446,22.3024 68.5,18.5C 63.7079,13.6083 58.3746,9.44164 52.5,6C 47.0946,5.12371 41.928,3.62371 37,1.5C 31.8397,3.08111 26.673,4.58111 21.5,6C 16.0267,9.91342 10.6934,14.0801 5.5,18.5C 4.75535,22.3024 3.58869,25.9691 2,29.5C 2.09077,33.8986 1.9241,38.2319 1.5,42.5C 1.5,43.8333 1.5,45.1667 1.5,46.5C 0.833333,45.1667 0.166667,43.8333 -0.5,42.5C -0.5,41.1667 -0.5,39.8333 -0.5,38.5C 0.833333,38.1667 0.833333,37.8333 -0.5,37.5C -0.5,35.1667 -0.5,32.8333 -0.5,30.5C 1.60975,26.3039 2.94308,21.8039 3.5,17C 8.43368,12.5261 13.767,8.52611 19.5,5C 24.9582,3.14651 30.2915,1.31318 35.5,-0.5 Z"/></g>
<g><path style="opacity:1" fill="#109ad4" d="M 72.5,43.5 C 70.2817,46.7193 69.115,50.386 69,54.5C 64.8672,57.6311 61.0338,61.1311 57.5,65C 50.822,67.8795 43.9887,70.3795 37,72.5C 29.9044,70.6856 23.071,68.1856 16.5,65C 12.9662,61.1311 9.13285,57.6311 5,54.5C 4.7067,50.1323 3.54003,46.1323 1.5,42.5C 1.9241,38.2319 2.09077,33.8986 2,29.5C 3.58869,25.9691 4.75535,22.3024 5.5,18.5C 10.6934,14.0801 16.0267,9.91342 21.5,6C 26.673,4.58111 31.8397,3.08111 37,1.5C 41.928,3.62371 47.0946,5.12371 52.5,6C 58.3746,9.44164 63.7079,13.6083 68.5,18.5C 69.2446,22.3024 70.4113,25.9691 72,29.5C 71.7673,34.2379 71.934,38.9046 72.5,43.5 Z"/></g>
<g><path style="opacity:1" fill="#78e3c2" d="M 35.5,3.5 C 47.8894,4.89839 58.2228,10.2317 66.5,19.5C 68.0361,24.1084 69.3695,28.7751 70.5,33.5C 70.1925,40.4858 69.1925,47.4858 67.5,54.5C 63.188,56.2895 59.5214,59.1228 56.5,63C 50.2959,66.1794 43.7959,68.6794 37,70.5C 30.151,68.8328 23.651,66.3328 17.5,63C 3.23923,51.3167 -0.0941022,36.8167 7.5,19.5C 11.5991,15.0626 16.2657,11.396 21.5,8.5C 26.35,7.07677 31.0167,5.4101 35.5,3.5 Z"/></g>
<g><path style="opacity:1" fill="#eff2f5" d="M 45.5,26.5 C 45.5,27.1667 45.5,27.8333 45.5,28.5C 43.6862,31.4542 41.6862,31.7875 39.5,29.5C 40.7118,27.0769 42.7118,26.0769 45.5,26.5 Z"/></g>
<g><path style="opacity:1" fill="#768289" d="M 62.5,24.5 C 62.9612,26.5504 63.6279,28.5504 64.5,30.5C 61.7719,31.9402 59.6052,31.2735 58,28.5C 57.5172,29.448 57.3505,30.448 57.5,31.5C 56.0687,30.2196 55.4021,28.5529 55.5,26.5C 56.1174,26.6107 56.6174,26.944 57,27.5C 56.8025,23.5876 55.3025,20.0876 52.5,17C 53.0253,16.3076 53.6919,15.8076 54.5,15.5C 57.8792,17.968 60.5459,20.968 62.5,24.5 Z"/></g>
<g><path style="opacity:1" fill="#c4a517" d="M 44.5,17.5 C 49.3844,19.0546 53.0511,22.0546 55.5,26.5C 55.4021,28.5529 56.0687,30.2196 57.5,31.5C 59.3863,40.4102 56.7196,47.7435 49.5,53.5C 48.7281,52.3065 47.7281,51.3065 46.5,50.5C 46.5,50.1667 46.5,49.8333 46.5,49.5C 55.7794,37.9722 54.1128,28.3055 41.5,20.5C 42.6405,19.5745 42.6405,18.7412 41.5,18C 42.448,17.5172 43.448,17.3505 44.5,17.5 Z"/></g>
<g><path style="opacity:1" fill="#199cda" d="M 60.5,16.5 C 61.1667,19.1667 61.8333,21.8333 62.5,24.5C 60.5459,20.968 57.8792,17.968 54.5,15.5C 53.6919,15.8076 53.0253,16.3076 52.5,17C 55.3025,20.0876 56.8025,23.5876 57,27.5C 56.6174,26.944 56.1174,26.6107 55.5,26.5C 53.0511,22.0546 49.3844,19.0546 44.5,17.5C 42.7095,16.6087 40.8761,15.6087 39,14.5C 38.3021,15.6906 37.4687,16.6906 36.5,17.5C 36.5,19.8333 36.5,22.1667 36.5,24.5C 36.1667,24.5 35.8333,24.5 35.5,24.5C 33.2646,24.2053 31.2646,24.5386 29.5,25.5C 28.8333,25.5 28.5,25.8333 28.5,26.5C 26.0029,27.1293 24.6696,28.796 24.5,31.5C 23.8333,31.8333 23.1667,32.1667 22.5,32.5C 22.5,31.5 22.5,30.5 22.5,29.5C 23.4884,28.205 24.4884,26.8717 25.5,25.5C 26.5,25.1667 27.1667,24.5 27.5,23.5C 28.1515,22.9094 28.8182,22.2427 29.5,21.5C 30.4255,22.6405 31.2588,22.6405 32,21.5C 32.49,20.2068 32.6567,18.8734 32.5,17.5C 29.284,17.3455 26.6174,18.3455 24.5,20.5C 22.8235,21.1834 22.1568,22.5168 22.5,24.5C 20.0582,24.1192 19.3915,24.7859 20.5,26.5C 19.3881,27.2652 18.7214,28.2652 18.5,29.5C 17.5489,30.9187 17.2155,32.5853 17.5,34.5C 16.8902,35.391 16.5569,36.391 16.5,37.5C 15.2089,36.4583 15.2089,35.2917 16.5,34C 15.2575,33.6886 14.2575,34.1886 13.5,35.5C 12.2613,35.0576 11.2613,34.3909 10.5,33.5C 11.5,33.5 12.5,33.5 13.5,33.5C 17.1583,18.8384 26.4916,12.3384 41.5,14C 44.7769,15.1434 48.1102,15.9767 51.5,16.5C 51.4386,14.4078 50.4386,12.9078 48.5,12C 45.0769,10.0961 41.4102,9.2628 37.5,9.5C 37.1667,13.5 36.8333,13.5 36.5,9.5C 33.1401,9.61587 29.8067,9.9492 26.5,10.5C 26.8808,12.9418 26.2141,13.6085 24.5,12.5C 21.0779,13.9215 18.7445,16.2549 17.5,19.5C 16.325,19.281 15.325,19.6143 14.5,20.5C 12.8084,23.2308 11.1417,25.8975 9.5,28.5C 8.5,28.5 7.5,28.5 6.5,28.5C 7.07294,25.8534 7.73961,23.1867 8.5,20.5C 10.9576,18.5452 13.291,16.3785 15.5,14C 17.3453,12.872 19.3453,12.372 21.5,12.5C 21.281,11.325 21.6143,10.325 22.5,9.5C 27.5394,8.36701 32.3727,6.70034 37,4.5C 41.1382,6.86949 45.6382,8.36949 50.5,9C 53.8691,11.498 57.2024,13.998 60.5,16.5 Z"/></g>
<g><path style="opacity:1" fill="#175636" d="M 24.5,20.5 C 25.5,21.5 26.5,22.5 27.5,23.5C 27.1667,24.5 26.5,25.1667 25.5,25.5C 24.3652,24.8973 23.3652,24.5639 22.5,24.5C 22.1568,22.5168 22.8235,21.1834 24.5,20.5 Z"/></g>
<g><path style="opacity:1" fill="#87a67a" d="M 27.5,23.5 C 26.5,22.5 25.5,21.5 24.5,20.5C 26.6174,18.3455 29.284,17.3455 32.5,17.5C 32.6567,18.8734 32.49,20.2068 32,21.5C 31.2588,22.6405 30.4255,22.6405 29.5,21.5C 28.8182,22.2427 28.1515,22.9094 27.5,23.5 Z"/></g>
<g><path style="opacity:1" fill="#3393bc" d="M 44.5,17.5 C 43.448,17.3505 42.448,17.5172 41.5,18C 42.6405,18.7412 42.6405,19.5745 41.5,20.5C 54.1128,28.3055 55.7794,37.9722 46.5,49.5C 45.5,49.1667 44.8333,48.5 44.5,47.5C 48.918,46.1701 50.5847,43.1701 49.5,38.5C 50.2216,38.9175 50.7216,39.5842 51,40.5C 51.6667,38.1667 51.6667,35.8333 51,33.5C 50.7216,34.4158 50.2216,35.0825 49.5,35.5C 49.7076,33.0799 49.3742,30.7466 48.5,28.5C 47.5754,27.4376 46.5754,27.4376 45.5,28.5C 45.5,27.8333 45.5,27.1667 45.5,26.5C 45.3893,25.8826 45.056,25.3826 44.5,25C 42.5273,24.5045 40.5273,24.3379 38.5,24.5C 39.0102,21.6122 38.3435,19.2789 36.5,17.5C 37.4687,16.6906 38.3021,15.6906 39,14.5C 40.8761,15.6087 42.7095,16.6087 44.5,17.5 Z"/></g>
<g><path style="opacity:1" fill="#6f7c83" d="M 10.5,33.5 C 9.54885,32.0813 9.21552,30.4147 9.5,28.5C 11.1417,25.8975 12.8084,23.2308 14.5,20.5C 15.325,19.6143 16.325,19.281 17.5,19.5C 18.7445,16.2549 21.0779,13.9215 24.5,12.5C 26.2141,13.6085 26.8808,12.9418 26.5,10.5C 29.8067,9.9492 33.1401,9.61587 36.5,9.5C 36.8333,13.5 37.1667,13.5 37.5,9.5C 41.4102,9.2628 45.0769,10.0961 48.5,12C 50.4386,12.9078 51.4386,14.4078 51.5,16.5C 48.1102,15.9767 44.7769,15.1434 41.5,14C 26.4916,12.3384 17.1583,18.8384 13.5,33.5C 12.5,33.5 11.5,33.5 10.5,33.5 Z"/></g>
<g><path style="opacity:1" fill="#8fae78" d="M 22.5,24.5 C 23.3652,24.5639 24.3652,24.8973 25.5,25.5C 24.4884,26.8717 23.4884,28.205 22.5,29.5C 21.0357,30.4054 19.7024,30.4054 18.5,29.5C 18.7214,28.2652 19.3881,27.2652 20.5,26.5C 19.3915,24.7859 20.0582,24.1192 22.5,24.5 Z"/></g>
<g><path style="opacity:1" fill="#b6c3d5" d="M 29.5,25.5 C 29.0926,26.7503 29.7593,27.917 31.5,29C 31.1667,29.3333 30.8333,29.6667 30.5,30C 34.3602,31.1192 34.8602,32.6192 32,34.5C 31.3828,33.5509 31.5494,32.7175 32.5,32C 30.8988,31.7266 29.3988,31.2266 28,30.5C 27.6667,31.5 27.3333,32.5 27,33.5C 26.8762,31.0643 27.3762,28.731 28.5,26.5C 28.5,25.8333 28.8333,25.5 29.5,25.5 Z"/></g>
<g><path style="opacity:1" fill="#10552d" d="M 18.5,29.5 C 19.7024,30.4054 21.0357,30.4054 22.5,29.5C 22.5,30.5 22.5,31.5 22.5,32.5C 21.5,32.8333 20.8333,33.5 20.5,34.5C 19.5,34.5 18.5,34.5 17.5,34.5C 17.2155,32.5853 17.5489,30.9187 18.5,29.5 Z"/></g>
<g><path style="opacity:1" fill="#11a1e5" d="M 6.5,28.5 C 7.5,28.5 8.5,28.5 9.5,28.5C 9.21552,30.4147 9.54885,32.0813 10.5,33.5C 11.2613,34.3909 12.2613,35.0576 13.5,35.5C 14.2575,34.1886 15.2575,33.6886 16.5,34C 15.2089,35.2917 15.2089,36.4583 16.5,37.5C 17.6527,38.3132 17.6527,39.3132 16.5,40.5C 16.9569,41.2975 17.6236,41.6309 18.5,41.5C 16.9546,44.1974 17.6213,46.1974 20.5,47.5C 21.0798,49.7488 22.4131,51.4154 24.5,52.5C 24.3398,54.1992 24.5065,55.8659 25,57.5C 27.7092,56.803 30.3759,56.4697 33,56.5C 33.4643,57.0944 33.631,57.7611 33.5,58.5C 30.8127,58.3359 28.146,58.5026 25.5,59C 24.0267,59.7096 23.3601,60.8762 23.5,62.5C 21.8008,62.6602 20.1341,62.4935 18.5,62C 15.2988,58.4636 11.7988,55.2969 8,52.5C 7.5415,48.5811 6.70816,44.7478 5.5,41C 5.50621,36.8345 5.83955,32.6679 6.5,28.5 Z"/></g>
<g><path style="opacity:1" fill="#b8242c" d="M 36.5,17.5 C 38.3435,19.2789 39.0102,21.6122 38.5,24.5C 38.5,28.5 38.5,32.5 38.5,36.5C 38.5,36.8333 38.5,37.1667 38.5,37.5C 38.5,38.5 38.5,39.5 38.5,40.5C 36.5539,35.6042 35.8872,30.2709 36.5,24.5C 36.5,22.1667 36.5,19.8333 36.5,17.5 Z"/></g>
<g><path style="opacity:1" fill="#1d4287" d="M 38.5,24.5 C 40.5273,24.3379 42.5273,24.5045 44.5,25C 45.056,25.3826 45.3893,25.8826 45.5,26.5C 42.7118,26.0769 40.7118,27.0769 39.5,29.5C 41.6862,31.7875 43.6862,31.4542 45.5,28.5C 46.5754,27.4376 47.5754,27.4376 48.5,28.5C 49.3742,30.7466 49.7076,33.0799 49.5,35.5C 46.0381,36.4816 42.3714,36.815 38.5,36.5C 38.5,32.5 38.5,28.5 38.5,24.5 Z"/></g>
<g><path style="opacity:1" fill="#17a0e1" d="M 60.5,16.5 C 63.4728,18.2974 65.4728,20.7974 66.5,24C 67.1667,27 67.8333,30 68.5,33C 67.7985,36.4533 67.6318,39.9533 68,43.5C 67.0124,46.4245 66.3457,49.4245 66,52.5C 62.2012,55.2969 58.7012,58.4636 55.5,62C 53.8659,62.4935 52.1992,62.6602 50.5,62.5C 50.7148,60.8212 50.0481,59.8212 48.5,59.5C 46.0521,58.5269 43.3854,58.1936 40.5,58.5C 42.9636,57.2568 45.6303,56.2568 48.5,55.5C 48.8627,54.8165 49.1961,54.1499 49.5,53.5C 56.7196,47.7435 59.3863,40.4102 57.5,31.5C 57.3505,30.448 57.5172,29.448 58,28.5C 59.6052,31.2735 61.7719,31.9402 64.5,30.5C 63.6279,28.5504 62.9612,26.5504 62.5,24.5C 61.8333,21.8333 61.1667,19.1667 60.5,16.5 Z"/></g>
<g><path style="opacity:1" fill="#3c96c2" d="M 22.5,32.5 C 22.5,35.1667 22.5,37.8333 22.5,40.5C 21.8333,40.5 21.5,40.1667 21.5,39.5C 20.9094,38.8485 20.2427,38.1818 19.5,37.5C 20.1272,36.5832 20.4606,35.5832 20.5,34.5C 20.8333,33.5 21.5,32.8333 22.5,32.5 Z"/></g>
<g><path style="opacity:1" fill="#163c85" d="M 29.5,25.5 C 31.2646,24.5386 33.2646,24.2053 35.5,24.5C 35.5,28.5 35.5,32.5 35.5,36.5C 31.8333,36.5 28.1667,36.5 24.5,36.5C 24.5,34.8333 24.5,33.1667 24.5,31.5C 24.6696,28.796 26.0029,27.1293 28.5,26.5C 27.3762,28.731 26.8762,31.0643 27,33.5C 27.3333,32.5 27.6667,31.5 28,30.5C 29.3988,31.2266 30.8988,31.7266 32.5,32C 31.5494,32.7175 31.3828,33.5509 32,34.5C 34.8602,32.6192 34.3602,31.1192 30.5,30C 30.8333,29.6667 31.1667,29.3333 31.5,29C 29.7593,27.917 29.0926,26.7503 29.5,25.5 Z"/></g>
<g><path style="opacity:1" fill="#7ad4b6" d="M 24.5,31.5 C 24.5,33.1667 24.5,34.8333 24.5,36.5C 28.1667,36.5 31.8333,36.5 35.5,36.5C 35.5,36.8333 35.5,37.1667 35.5,37.5C 31.6286,37.185 27.9619,37.5184 24.5,38.5C 23.8333,39.1667 23.1667,39.8333 22.5,40.5C 22.5,37.8333 22.5,35.1667 22.5,32.5C 23.1667,32.1667 23.8333,31.8333 24.5,31.5 Z"/></g>
<g><path style="opacity:1" fill="#7ddabd" d="M 49.5,38.5 C 46.0381,37.5184 42.3714,37.185 38.5,37.5C 38.5,37.1667 38.5,36.8333 38.5,36.5C 42.3714,36.815 46.0381,36.4816 49.5,35.5C 50.2216,35.0825 50.7216,34.4158 51,33.5C 51.6667,35.8333 51.6667,38.1667 51,40.5C 50.7216,39.5842 50.2216,38.9175 49.5,38.5 Z"/></g>
<g><path style="opacity:1" fill="#88af74" d="M 17.5,34.5 C 18.5,34.5 19.5,34.5 20.5,34.5C 20.4606,35.5832 20.1272,36.5832 19.5,37.5C 20.2427,38.1818 20.9094,38.8485 21.5,39.5C 20.603,40.5981 19.7697,40.5981 19,39.5C 18.5357,40.0944 18.369,40.7611 18.5,41.5C 17.6236,41.6309 16.9569,41.2975 16.5,40.5C 17.6527,39.3132 17.6527,38.3132 16.5,37.5C 16.5569,36.391 16.8902,35.391 17.5,34.5 Z"/></g>
<g><path style="opacity:1" fill="#063783" d="M 35.5,37.5 C 35.5,38.8333 35.5,40.1667 35.5,41.5C 33.7839,41.6287 32.1172,41.962 30.5,42.5C 30.5,41.5 30.5,40.5 30.5,39.5C 28.901,39.2322 27.5676,39.5655 26.5,40.5C 24.8042,44.0224 24.1375,43.3558 24.5,38.5C 27.9619,37.5184 31.6286,37.185 35.5,37.5 Z"/></g>
<g><path style="opacity:1" fill="#143c85" d="M 38.5,37.5 C 42.3714,37.185 46.0381,37.5184 49.5,38.5C 50.5847,43.1701 48.918,46.1701 44.5,47.5C 42.9014,46.2015 42.4014,44.5348 43,42.5C 44.2811,43.6467 44.6144,43.3134 44,41.5C 43.0853,40.6721 42.4186,39.6721 42,38.5C 41.4867,39.5266 40.9867,40.5266 40.5,41.5C 39.8333,41.1667 39.1667,40.8333 38.5,40.5C 38.5,39.5 38.5,38.5 38.5,37.5 Z"/></g>
<g><path style="opacity:1" fill="#652840" d="M 35.5,24.5 C 35.8333,24.5 36.1667,24.5 36.5,24.5C 35.8872,30.2709 36.5539,35.6042 38.5,40.5C 37.791,41.404 36.791,41.7373 35.5,41.5C 35.5,40.1667 35.5,38.8333 35.5,37.5C 35.5,37.1667 35.5,36.8333 35.5,36.5C 35.5,32.5 35.5,28.5 35.5,24.5 Z"/></g>
<g><path style="opacity:1" fill="#1c5e37" d="M 21.5,39.5 C 21.5,40.1667 21.8333,40.5 22.5,40.5C 23.3414,42.3792 23.6747,44.3792 23.5,46.5C 23.631,47.2389 23.4643,47.9056 23,48.5C 22.3292,47.7476 21.4959,47.4142 20.5,47.5C 17.6213,46.1974 16.9546,44.1974 18.5,41.5C 18.369,40.7611 18.5357,40.0944 19,39.5C 19.7697,40.5981 20.603,40.5981 21.5,39.5 Z"/></g>
<g><path style="opacity:1" fill="#4e6797" d="M 26.5,40.5 C 27.5676,39.5655 28.901,39.2322 30.5,39.5C 30.5,40.5 30.5,41.5 30.5,42.5C 31.968,43.7791 32.6347,45.4458 32.5,47.5C 31.5,47.5 30.5,47.5 29.5,47.5C 25.5443,46.9473 25.5443,46.1139 29.5,45C 27.311,44.323 26.9776,43.1563 28.5,41.5C 28.0431,40.7025 27.3764,40.3691 26.5,40.5 Z"/></g>
<g><path style="opacity:1" fill="#7fafc7" d="M 24.5,38.5 C 24.1375,43.3558 24.8042,44.0224 26.5,40.5C 27.3764,40.3691 28.0431,40.7025 28.5,41.5C 26.9776,43.1563 27.311,44.323 29.5,45C 25.5443,46.1139 25.5443,46.9473 29.5,47.5C 29.1667,48.5 28.5,49.1667 27.5,49.5C 26.4549,48.1224 25.1216,47.1224 23.5,46.5C 23.6747,44.3792 23.3414,42.3792 22.5,40.5C 23.1667,39.8333 23.8333,39.1667 24.5,38.5 Z"/></g>
<g><path style="opacity:1" fill="#c1bc1f" d="M 38.5,48.5 C 38.5,48.8333 38.5,49.1667 38.5,49.5C 35.9078,47.9639 34.9078,45.6305 35.5,42.5C 36.5,42.5 37.5,42.5 38.5,42.5C 38.5,44.5 38.5,46.5 38.5,48.5 Z"/></g>
<g><path style="opacity:1" fill="#eff0f2" d="M 44.5,47.5 C 44.8333,48.5 45.5,49.1667 46.5,49.5C 46.5,49.8333 46.5,50.1667 46.5,50.5C 46.4142,51.4959 46.7476,52.3292 47.5,53C 43.9614,53.1872 40.7948,54.3538 38,56.5C 37.4436,54.1152 37.6103,51.7819 38.5,49.5C 38.5,49.1667 38.5,48.8333 38.5,48.5C 42.5445,47.7454 43.2112,45.412 40.5,41.5C 40.9867,40.5266 41.4867,39.5266 42,38.5C 42.4186,39.6721 43.0853,40.6721 44,41.5C 44.6144,43.3134 44.2811,43.6467 43,42.5C 42.4014,44.5348 42.9014,46.2015 44.5,47.5 Z"/></g>
<g><path style="opacity:1" fill="#929ba2" d="M 38.5,40.5 C 39.1667,40.8333 39.8333,41.1667 40.5,41.5C 43.2112,45.412 42.5445,47.7454 38.5,48.5C 38.5,46.5 38.5,44.5 38.5,42.5C 37.5,42.5 36.5,42.5 35.5,42.5C 34.9078,45.6305 35.9078,47.9639 38.5,49.5C 37.6103,51.7819 37.4436,54.1152 38,56.5C 40.7948,54.3538 43.9614,53.1872 47.5,53C 46.7476,52.3292 46.4142,51.4959 46.5,50.5C 47.7281,51.3065 48.7281,52.3065 49.5,53.5C 49.1961,54.1499 48.8627,54.8165 48.5,55.5C 45.6303,56.2568 42.9636,57.2568 40.5,58.5C 38.1667,58.5 35.8333,58.5 33.5,58.5C 33.631,57.7611 33.4643,57.0944 33,56.5C 30.3759,56.4697 27.7092,56.803 25,57.5C 24.5065,55.8659 24.3398,54.1992 24.5,52.5C 24.9731,51.0937 25.9731,50.427 27.5,50.5C 27.1961,51.1499 26.8627,51.8165 26.5,52.5C 29.9555,53.157 33.1222,54.4904 36,56.5C 37.4982,52.2342 36.3315,49.2342 32.5,47.5C 32.6347,45.4458 31.968,43.7791 30.5,42.5C 32.1172,41.962 33.7839,41.6287 35.5,41.5C 36.791,41.7373 37.791,41.404 38.5,40.5 Z"/></g>
<g><path style="opacity:0.725" fill="#252b2e" d="M 1.5,42.5 C 3.54003,46.1323 4.7067,50.1323 5,54.5C 9.13285,57.6311 12.9662,61.1311 16.5,65C 23.071,68.1856 29.9044,70.6856 37,72.5C 43.9887,70.3795 50.822,67.8795 57.5,65C 61.0338,61.1311 64.8672,57.6311 69,54.5C 69.115,50.386 70.2817,46.7193 72.5,43.5C 72.5,44.5 72.5,45.5 72.5,46.5C 71.7929,49.7861 71.4595,53.1194 71.5,56.5C 66.8498,58.6286 62.8498,61.7952 59.5,66C 53.3561,69.7152 46.6895,72.0485 39.5,73C 38.944,73.3826 38.6107,73.8826 38.5,74.5C 37.5,74.5 36.5,74.5 35.5,74.5C 35.3893,73.8826 35.056,73.3826 34.5,73C 22.8534,71.231 13.1868,65.8977 5.5,57C 4.55198,56.5172 3.55198,56.3505 2.5,56.5C 2.54046,53.1194 2.20713,49.7861 1.5,46.5C 1.5,45.1667 1.5,43.8333 1.5,42.5 Z"/></g>
<g><path style="opacity:1" fill="#edf5f6" d="M 33.5,58.5 C 35.8333,58.5 38.1667,58.5 40.5,58.5C 43.3854,58.1936 46.0521,58.5269 48.5,59.5C 50.0481,59.8212 50.7148,60.8212 50.5,62.5C 50.5,62.8333 50.5,63.1667 50.5,63.5C 41.5,62.1667 32.5,62.1667 23.5,63.5C 23.5,63.1667 23.5,62.8333 23.5,62.5C 23.3601,60.8762 24.0267,59.7096 25.5,59C 28.146,58.5026 30.8127,58.3359 33.5,58.5 Z"/></g>
<g><path style="opacity:1" fill="#afaeae" d="M 48.5,59.5 C 45.7425,60.8182 42.5758,61.4848 39,61.5C 35.8333,61.1667 32.6667,60.8333 29.5,60.5C 35.7633,59.9847 42.0967,59.6513 48.5,59.5 Z"/></g>
<g><path style="opacity:1" fill="#f9f9f9" d="M 29.5,47.5 C 30.5,47.5 31.5,47.5 32.5,47.5C 36.3315,49.2342 37.4982,52.2342 36,56.5C 33.1222,54.4904 29.9555,53.157 26.5,52.5C 26.8627,51.8165 27.1961,51.1499 27.5,50.5C 27.5,50.1667 27.5,49.8333 27.5,49.5C 28.5,49.1667 29.1667,48.5 29.5,47.5 Z"/></g>
<g><path style="opacity:1" fill="#89ab7c" d="M 23.5,46.5 C 25.1216,47.1224 26.4549,48.1224 27.5,49.5C 27.5,49.8333 27.5,50.1667 27.5,50.5C 25.9731,50.427 24.9731,51.0937 24.5,52.5C 22.4131,51.4154 21.0798,49.7488 20.5,47.5C 21.4959,47.4142 22.3292,47.7476 23,48.5C 23.4643,47.9056 23.631,47.2389 23.5,46.5 Z"/></g>
<g><path style="opacity:1" fill="#11a5e6" d="M 50.5,63.5 C 50.3893,64.1174 50.056,64.6174 49.5,65C 45.1714,65.6235 41.0047,66.7902 37,68.5C 32.8678,67.207 28.7011,66.0403 24.5,65C 23.944,64.6174 23.6107,64.1174 23.5,63.5C 32.5,62.1667 41.5,62.1667 50.5,63.5 Z"/></g>
</svg>
