<?xml version="1.0" encoding="UTF-8"?>
<svg xmlns="http://www.w3.org/2000/svg" xmlns:xlink="http://www.w3.org/1999/xlink" width="150px" height="150px" viewBox="0 0 150 149" version="1.1">
<g id="surface1">
<path style=" stroke:none;fill-rule:nonzero;fill:rgb(0%,0%,0%);fill-opacity:1;" d="M 71.851562 2.191406 C 69.351562 3.984375 66.398438 4.878906 55.699219 7.171875 C 45.5 9.363281 42.550781 10.40625 40.148438 12.699219 C 38.949219 13.84375 38 15.140625 38 15.539062 C 38 16.136719 37.300781 16.433594 35.5 16.683594 C 31.800781 17.179688 27.800781 20.070312 20 27.9375 C 14.199219 33.765625 12.898438 34.808594 10.648438 35.558594 C 9.199219 36.054688 7.949219 36.703125 7.898438 37 C 7.898438 37.347656 7.800781 39.492188 7.75 41.832031 C 7.699219 45.316406 7.351562 46.960938 5.800781 51.292969 C 1.351562 63.644531 1.300781 63.792969 1.300781 68.472656 C 1.25 72.308594 1.398438 73.207031 2.300781 74.449219 C 3.300781 75.792969 3.300781 75.992188 2.648438 77.636719 C 1.351562 80.625 2.050781 85.40625 5 94.371094 C 7.5 102.039062 7.601562 102.488281 7.351562 106.421875 C 7.050781 110.855469 7.5 112.046875 9.550781 112.046875 C 11.800781 112.046875 14.898438 114.488281 23.351562 122.90625 C 32.851562 132.367188 34.449219 133.460938 39.050781 133.460938 C 40.550781 133.460938 41.148438 133.761719 42 134.957031 C 43.75 137.398438 49.351562 139.738281 57.5 141.429688 C 68.050781 143.621094 69.648438 144.167969 72.25 146.410156 C 73.5 147.507812 74.75 148.402344 75 148.402344 C 75.25 148.402344 76.449219 147.507812 77.699219 146.460938 C 80.398438 144.121094 81.101562 143.871094 90.648438 141.929688 C 101.148438 139.738281 106.25 137.695312 108.101562 134.808594 C 108.800781 133.8125 109.449219 133.5625 112 133.3125 C 116.300781 132.964844 118.898438 131.070312 126.800781 122.753906 C 133.800781 115.386719 137.898438 112.046875 140 112.046875 C 140.75 112.046875 141.75 111.601562 142.199219 111.101562 C 142.949219 110.304688 143 109.757812 142.601562 107.914062 C 141.949219 104.726562 142.601562 100.945312 145.25 93.324219 C 147.898438 85.503906 148.550781 80.972656 147.351562 78.085938 C 146.648438 76.390625 146.648438 76.191406 147.851562 73.851562 C 149.699219 70.265625 149.300781 66.332031 146.25 57.765625 C 142.5 47.257812 141.898438 44.570312 142.199219 40.734375 C 142.5 37.300781 141.898438 35.855469 140.199219 35.855469 C 138.449219 35.855469 135.800781 33.8125 128.75 26.941406 C 121.050781 19.472656 118 17.332031 114.148438 16.683594 C 112.5 16.433594 111.949219 16.085938 111.5 14.941406 C 110.050781 11.402344 107.101562 10.109375 93.351562 6.972656 C 82 4.433594 80.25 3.835938 77.550781 1.792969 C 75.300781 0.0976562 74.75 0.148438 71.851562 2.191406 Z M 77.449219 5.328125 C 79.550781 6.773438 82.300781 7.570312 93.199219 9.960938 C 97.898438 11.003906 103.050781 12.351562 104.648438 12.949219 C 108.199219 14.292969 109.648438 16.183594 109.351562 19.023438 L 109.101562 20.816406 L 110.851562 20.070312 C 113.398438 19.023438 115.898438 19.621094 119.300781 22.109375 C 122.199219 24.253906 124.75 26.644531 124.75 27.289062 C 124.75 27.488281 124.898438 27.589844 125.101562 27.539062 C 125.699219 27.339844 131.5 33.914062 131.199219 34.460938 C 130.949219 34.808594 131.101562 34.859375 131.449219 34.609375 C 131.851562 34.410156 132.601562 34.761719 133.398438 35.507812 C 134.148438 36.203125 135.75 37.25 137 37.796875 L 139.199219 38.792969 L 139.300781 42.679688 C 139.351562 46.613281 139.5 47.210938 144 60.007812 C 146.898438 68.273438 146.398438 73.804688 142.648438 74.847656 L 141.101562 75.296875 L 143.101562 77.238281 L 145.148438 79.179688 L 144.851562 82.816406 C 144.699219 85.105469 143.949219 88.246094 143 90.933594 C 140.25 98.601562 139.449219 102.089844 139.601562 105.722656 C 139.75 109.160156 139.699219 109.261719 137.648438 109.210938 C 137.300781 109.160156 137 109.359375 137 109.609375 C 137 109.859375 136.351562 110.355469 135.5 110.804688 C 134.699219 111.203125 132.601562 112.894531 130.851562 114.539062 C 129.101562 116.183594 127.5 117.378906 127.300781 117.277344 C 127.148438 117.128906 127.101562 117.179688 127.25 117.378906 C 127.648438 117.875 125.949219 119.519531 125.351562 119.171875 C 125.050781 118.972656 125 119.121094 125.25 119.46875 C 125.699219 120.214844 121.601562 124.597656 120.851562 124.148438 C 120.550781 124 120.5 124.101562 120.648438 124.398438 C 121.050781 124.996094 116.101562 129.628906 115.5 129.230469 C 115.300781 129.082031 115 129.328125 114.800781 129.726562 C 114.351562 130.871094 109.601562 130.722656 108 129.480469 C 106.300781 128.183594 106.148438 128.234375 106.398438 130.175781 C 106.898438 134.558594 103.101562 136.449219 87.25 139.6875 C 80.351562 141.132812 78.550781 141.777344 76.398438 143.820312 L 75.050781 145.066406 L 73.300781 143.523438 C 72.300781 142.675781 70.601562 141.730469 69.5 141.378906 C 68.449219 141.03125 67.648438 140.582031 67.800781 140.382812 C 67.949219 140.136719 67.75 140.085938 67.351562 140.234375 C 66.449219 140.535156 54.75 138.195312 50.75 136.847656 C 47.199219 135.703125 44.699219 134.210938 44 132.964844 C 43.699219 132.464844 43.5 131.070312 43.5 129.878906 C 43.449219 128.085938 43.351562 127.886719 42.851562 128.53125 C 41.898438 129.777344 40.199219 130.472656 38.148438 130.472656 C 35.949219 130.472656 33.699219 129.429688 33.898438 128.53125 C 33.949219 128.183594 33.800781 128.085938 33.5 128.234375 C 32.75 128.683594 30.449219 126.539062 30.851562 125.792969 C 31 125.496094 30.949219 125.394531 30.75 125.644531 C 30.199219 126.09375 24.949219 121.011719 25.300781 120.414062 C 25.449219 120.167969 25.398438 120.015625 25.148438 120.117188 C 24.949219 120.167969 22.898438 118.375 20.699219 116.183594 C 18.449219 113.941406 15.449219 111.5 14.050781 110.703125 C 12.648438 109.859375 11.648438 109.109375 11.800781 108.910156 C 11.949219 108.761719 11.699219 108.761719 11.148438 108.863281 C 10.351562 109.0625 10.25 108.710938 10.199219 104.726562 C 10.148438 100.894531 9.851562 99.449219 7.75 93.375 C 4.949219 85.15625 4.398438 80.875 5.75 78.382812 C 6.25 77.4375 7.050781 76.589844 7.550781 76.441406 C 8.898438 75.992188 8.699219 75.347656 7.25 74.996094 C 6.550781 74.796875 5.5 73.953125 4.949219 73.054688 C 3.199219 70.316406 3.851562 65.535156 7.199219 56.273438 C 10.101562 48.355469 11.148438 43.574219 10.648438 40.636719 C 10.398438 38.992188 10.5 38.894531 12.75 37.898438 C 14.050781 37.347656 15.300781 37 15.550781 37.152344 C 15.800781 37.300781 15.949219 37.199219 15.898438 37 C 15.699219 36.304688 23.601562 28.386719 24.148438 28.734375 C 24.449219 28.882812 24.5 28.832031 24.351562 28.535156 C 23.898438 27.789062 28.800781 23.207031 29.550781 23.65625 C 29.898438 23.902344 30.050781 23.855469 29.800781 23.503906 C 29.351562 22.808594 32.800781 20.21875 33.550781 20.714844 C 33.898438 20.914062 34 20.867188 33.851562 20.515625 C 33.25 19.621094 37.199219 19.273438 39.148438 20.070312 L 40.898438 20.816406 L 40.648438 18.875 C 40.449219 17.578125 40.550781 16.933594 40.949219 16.933594 C 41.300781 16.933594 41.398438 16.683594 41.25 16.433594 C 40.800781 15.6875 41.851562 14.542969 44.050781 13.445312 C 45.898438 12.5 50.601562 11.253906 62.25 8.714844 C 68.800781 7.269531 72.449219 5.925781 73.800781 4.433594 C 74.25 3.933594 74.898438 3.683594 75.199219 3.835938 C 75.5 4.035156 76.5 4.730469 77.449219 5.328125 Z M 77.449219 5.328125 "/>
<path style=" stroke:none;fill-rule:nonzero;fill:rgb(0%,0%,0%);fill-opacity:1;" d="M 67.398438 19.769531 C 66.898438 19.871094 66.5 20.367188 66.5 20.816406 C 66.449219 21.5625 66.398438 21.5625 65.800781 20.765625 C 65.101562 19.820312 63 19.96875 61.648438 21.066406 C 61.199219 21.363281 61 21.363281 61 20.914062 C 61 20.46875 60.800781 20.46875 60.398438 20.765625 C 60.050781 21.066406 58.199219 21.761719 56.300781 22.410156 C 52.648438 23.605469 52.550781 23.855469 53.75 26.992188 C 54.351562 28.535156 53.148438 27.9375 52.5 26.394531 C 52.148438 25.546875 51.699219 24.75 51.449219 24.652344 C 50.949219 24.300781 47.5 25.945312 47.5 26.492188 C 47.5 26.792969 50.398438 33.066406 50.898438 33.8125 C 50.949219 33.964844 52.300781 33.414062 53.898438 32.667969 C 61.199219 29.082031 71.949219 27.289062 80.148438 28.335938 C 85.898438 29.082031 91.300781 30.527344 95.5 32.519531 C 97.300781 33.367188 98.898438 34.011719 99.148438 33.964844 C 99.351562 33.914062 99.5 34.0625 99.5 34.363281 C 99.5 34.609375 100.351562 35.257812 101.398438 35.804688 C 103.25 36.753906 113.5 46.3125 113.5 47.109375 C 113.5 47.308594 114.101562 48.207031 114.800781 49.152344 C 116.550781 51.441406 119.75 58.316406 120.800781 62.101562 C 121.25 63.84375 121.800781 65.238281 121.949219 65.238281 C 122.648438 65.1875 129.601562 63.296875 129.851562 63.046875 C 130.75 62.148438 124 45.914062 123 46.5625 C 122.75 46.710938 122.5 46.511719 122.5 46.066406 C 122.5 44.71875 121.050781 42.429688 120.050781 42.082031 C 119.5 41.929688 119.148438 41.484375 119.300781 41.085938 C 119.449219 40.734375 119.300781 40.289062 119.050781 40.089844 C 118.75 39.9375 118.648438 39.539062 118.800781 39.242188 C 119 38.941406 118.898438 38.84375 118.601562 39.042969 C 118 39.390625 116.398438 37.398438 116.800781 36.753906 C 116.949219 36.503906 116.898438 36.402344 116.648438 36.453125 C 116.050781 36.652344 112.5 33.863281 112.648438 33.214844 C 112.699219 32.917969 112.398438 32.617188 112 32.617188 C 111.601562 32.617188 111.300781 32.269531 111.398438 31.921875 C 111.449219 31.574219 111.300781 31.421875 111.050781 31.574219 C 110.800781 31.773438 110.199219 31.523438 109.75 31.023438 C 108.949219 30.277344 108.75 30.378906 106.449219 32.917969 C 105.148438 34.410156 104.050781 35.359375 104.050781 35.109375 C 104.050781 34.660156 104.398438 32.71875 105.25 29.03125 C 105.449219 28.136719 105.148438 27.738281 103.550781 26.941406 C 101.851562 26.046875 101.5 25.996094 101 26.644531 C 100.449219 27.289062 100.25 27.140625 99.550781 25.796875 C 98.601562 23.855469 96.148438 22.957031 94.25 23.804688 C 93.101562 24.351562 93 24.253906 93 23.207031 C 93 22.410156 92.648438 21.910156 91.898438 21.710938 C 90.050781 21.265625 88.601562 21.363281 88.351562 22.011719 C 88.199219 22.359375 88.050781 22.160156 88.050781 21.511719 C 88 20.714844 87.648438 20.417969 86.75 20.316406 C 86.050781 20.269531 84.898438 20.167969 84.148438 20.070312 C 75.699219 19.121094 76 18.972656 76 23.65625 C 76 26.492188 75.949219 26.59375 75.300781 25.347656 C 74.949219 24.601562 74.75 23.457031 74.851562 22.757812 C 75.25 20.765625 73.5 19.421875 70.648438 19.472656 C 69.300781 19.519531 67.851562 19.621094 67.398438 19.769531 Z M 72.800781 22.90625 C 72.851562 23.855469 73.050781 25.050781 73.25 25.496094 C 73.800781 26.84375 72.101562 26.644531 70.949219 25.25 L 70.050781 24.152344 L 70 25.199219 C 70 26.246094 68.898438 27.089844 68.300781 26.542969 C 68.148438 26.34375 68 25 68 23.554688 L 68 20.867188 L 70.398438 21.015625 C 72.699219 21.164062 72.75 21.214844 72.800781 22.90625 Z M 82.25 23.65625 L 82.25 26.144531 L 79.550781 26.292969 C 76.949219 26.445312 76.898438 26.394531 77.199219 25.296875 C 77.351562 24.652344 77.5 23.40625 77.5 22.507812 L 77.5 20.867188 L 79.898438 21.015625 L 82.25 21.164062 Z M 65.949219 23.804688 C 66.800781 25.148438 67.5 26.394531 67.5 26.59375 C 67.5 26.792969 66.648438 26.84375 65.550781 26.644531 C 64.050781 26.394531 63.550781 26.492188 63.351562 27.089844 C 62.851562 28.386719 61.449219 28.085938 61.699219 26.742188 C 61.851562 26.144531 62.050781 24.800781 62.25 23.804688 C 62.5 22.210938 62.949219 21.5625 64.050781 21.464844 C 64.25 21.414062 65.101562 22.507812 65.949219 23.804688 Z M 85.800781 24.003906 C 85.351562 27.089844 85.199219 27.441406 84.199219 27.042969 C 83.601562 26.84375 83.5 26.34375 83.75 24.949219 C 84.25 22.011719 84.550781 21.414062 85.351562 21.414062 C 86 21.414062 86.050781 21.863281 85.800781 24.003906 Z M 91.601562 26.144531 C 91.699219 28.433594 91.601562 28.882812 90.949219 28.882812 C 90.5 28.882812 89.949219 28.535156 89.800781 28.085938 C 89.550781 27.488281 89.101562 27.339844 88 27.539062 C 85.851562 27.988281 85.800781 27.289062 87.800781 24.699219 C 89.25 22.757812 89.699219 22.460938 90.5 22.90625 C 91.148438 23.257812 91.449219 24.101562 91.601562 26.144531 Z M 60.300781 25.050781 C 60.949219 26.84375 60.898438 27.042969 59.75 28.1875 C 58.398438 29.53125 57.550781 29.679688 56.398438 28.734375 C 55.5 28.035156 54.398438 25 54.800781 24.300781 C 55.300781 23.503906 56.148438 24.152344 56.75 25.945312 C 57.101562 26.890625 57.648438 27.640625 58.050781 27.640625 C 58.800781 27.640625 58.851562 26.492188 58.25 24.253906 C 57.648438 21.960938 59.5 22.707031 60.300781 25.050781 Z M 97.550781 25.398438 C 98.648438 25.996094 98.851562 27.390625 97.800781 27.390625 C 97.398438 27.390625 97 27.042969 96.800781 26.644531 C 96.648438 26.246094 96.25 25.894531 95.949219 25.894531 C 95.601562 25.894531 95.800781 26.394531 96.398438 27.042969 C 97.699219 28.386719 97.800781 29.53125 96.75 30.378906 C 95.351562 31.523438 91.851562 29.332031 92.75 27.886719 C 93.148438 27.242188 94.5 27.886719 94.5 28.683594 C 94.5 29.082031 94.898438 29.382812 95.351562 29.382812 C 96.050781 29.382812 96 29.230469 95.101562 28.234375 C 93.550781 26.59375 93.648438 24.898438 95.300781 24.898438 C 96 24.898438 97 25.148438 97.550781 25.398438 Z M 51.648438 28.136719 C 52.398438 29.679688 52.648438 29.828125 53.449219 29.382812 C 55.898438 28.085938 56.25 29.429688 53.898438 30.875 C 53 31.421875 52.101562 31.871094 51.898438 31.871094 C 51.351562 31.871094 49 27.089844 49.351562 26.691406 C 50.050781 25.996094 50.851562 26.492188 51.648438 28.136719 Z M 103.300781 29.28125 C 103.199219 29.730469 102.898438 31.074219 102.75 32.21875 C 102.398438 34.460938 101.699219 35.007812 101.148438 33.464844 C 100.699219 32.320312 99.898438 31.820312 98.898438 32.171875 C 97.050781 32.71875 97.398438 31.125 99.5 29.332031 C 101.25 27.839844 101.851562 27.539062 102.601562 27.9375 C 103.148438 28.234375 103.449219 28.785156 103.300781 29.28125 Z M 109.75 35.308594 L 109.449219 37.101562 L 110.449219 35.855469 C 111.25 34.859375 111.550781 34.761719 112.050781 35.207031 C 112.550781 35.707031 112.351562 36.203125 111.148438 37.699219 C 109.199219 40.136719 108.300781 40.136719 108.101562 37.699219 C 107.949219 35.804688 107.898438 35.804688 106.949219 36.652344 C 106.199219 37.300781 105.851562 37.398438 105.398438 36.953125 C 104.5 36.054688 108.398438 32.171875 109.398438 32.96875 C 109.851562 33.367188 110 34.113281 109.75 35.308594 Z M 115.949219 38.941406 C 116.949219 40.039062 117.25 40.734375 116.949219 41.085938 C 116.601562 41.433594 116.148438 41.183594 115.5 40.335938 C 115 39.640625 114.398438 39.292969 114.199219 39.492188 C 114 39.691406 114.25 40.289062 114.75 40.835938 C 115.949219 42.128906 115.300781 42.777344 114 41.582031 C 112.699219 40.386719 112.050781 41.035156 113.25 42.328125 C 113.851562 42.976562 114 43.523438 113.699219 43.824219 C 113.351562 44.171875 112.601562 43.722656 111.550781 42.628906 L 109.898438 40.933594 L 111.851562 39.140625 C 112.898438 38.195312 113.898438 37.347656 114.148438 37.347656 C 114.351562 37.347656 115.148438 38.097656 115.949219 38.941406 Z M 120.148438 44.421875 C 121.300781 45.964844 121 47.855469 119.75 46.8125 C 119.351562 46.464844 119.101562 46.015625 119.25 45.816406 C 119.398438 45.617188 119.148438 45.167969 118.699219 44.769531 C 118.050781 44.273438 117.75 44.320312 116.851562 45.21875 C 115.800781 46.265625 115.800781 46.363281 116.699219 47.160156 C 117.550781 48.007812 117.550781 48.007812 117.398438 47.109375 C 117.199219 45.765625 118.148438 45.617188 118.949219 46.910156 C 119.550781 47.855469 119.5 48.054688 118.699219 48.652344 C 117.449219 49.550781 117.101562 49.5 115.75 48.007812 C 114.199219 46.363281 114.199219 45.46875 115.601562 43.972656 C 117 42.480469 118.851562 42.628906 120.148438 44.421875 Z M 123.75 50.296875 C 124.699219 52.4375 124.351562 53.632812 123.25 52.089844 C 122.851562 51.59375 122.449219 50.894531 122.351562 50.597656 C 122.25 50.296875 122 50.199219 121.800781 50.398438 C 121.601562 50.546875 121.699219 51.195312 122 51.792969 C 122.851562 53.386719 122.101562 53.734375 121 52.289062 C 119.949219 50.894531 119.148438 51.195312 119.949219 52.6875 C 120.648438 53.984375 120.648438 54.78125 120 54.78125 C 119.75 54.78125 119.050781 53.882812 118.5 52.789062 L 117.5 50.84375 L 118.601562 50.097656 C 122.351562 47.808594 122.648438 47.808594 123.75 50.296875 Z M 126.199219 55.824219 C 127.148438 58.164062 126.550781 59.511719 124.851562 59.0625 C 124.199219 58.914062 123.550781 59.210938 122.949219 59.910156 C 122.148438 60.90625 122.050781 60.953125 121.75 60.109375 C 121.5 59.558594 121.699219 58.863281 122.199219 58.316406 C 123.300781 57.121094 123.199219 56.621094 121.949219 57.019531 C 121.25 57.269531 120.699219 57.121094 120.449219 56.722656 C 120.148438 56.222656 120.648438 55.726562 122.398438 54.929688 C 123.699219 54.332031 124.898438 53.832031 125.050781 53.832031 C 125.25 53.785156 125.75 54.679688 126.199219 55.824219 Z M 128 61.152344 C 128 61.800781 127.351562 62.199219 125.75 62.648438 C 122.851562 63.394531 122.648438 63.394531 122.300781 62.5 C 122.101562 61.949219 122.699219 61.550781 124.398438 61.054688 C 127.550781 60.109375 128 60.109375 128 61.152344 Z M 128 61.152344 "/>
<path style=" stroke:none;fill-rule:nonzero;fill:rgb(0%,0%,0%);fill-opacity:1;" d="M 70 22.410156 C 70 22.660156 70.351562 22.90625 70.800781 22.90625 C 71.199219 22.90625 71.398438 22.660156 71.25 22.410156 C 71.101562 22.109375 70.75 21.910156 70.449219 21.910156 C 70.199219 21.910156 70 22.109375 70 22.410156 Z M 70 22.410156 "/>
<path style=" stroke:none;fill-rule:nonzero;fill:rgb(0%,0%,0%);fill-opacity:1;" d="M 79.25 22.410156 C 79.101562 22.660156 79.300781 22.90625 79.699219 22.90625 C 80.148438 22.90625 80.5 22.660156 80.5 22.410156 C 80.5 22.109375 80.300781 21.910156 80.050781 21.910156 C 79.75 21.910156 79.398438 22.109375 79.25 22.410156 Z M 79.25 22.410156 "/>
<path style=" stroke:none;fill-rule:nonzero;fill:rgb(0%,0%,0%);fill-opacity:1;" d="M 79 24.898438 C 79 25.148438 79.300781 25.398438 79.699219 25.398438 C 80.101562 25.398438 80.601562 25.148438 80.75 24.898438 C 80.898438 24.601562 80.601562 24.402344 80.050781 24.402344 C 79.449219 24.402344 79 24.601562 79 24.898438 Z M 79 24.898438 "/>
<path style=" stroke:none;fill-rule:nonzero;fill:rgb(0%,0%,0%);fill-opacity:1;" d="M 63.5 24.601562 C 63.5 25.050781 63.75 25.398438 64 25.398438 C 64.300781 25.398438 64.5 25.199219 64.5 24.949219 C 64.5 24.652344 64.300781 24.300781 64 24.152344 C 63.75 24.003906 63.5 24.203125 63.5 24.601562 Z M 63.5 24.601562 "/>
<path style=" stroke:none;fill-rule:nonzero;fill:rgb(0%,0%,0%);fill-opacity:1;" d="M 89.351562 25.097656 C 89.148438 25.597656 89.101562 26.144531 89.25 26.292969 C 89.699219 26.742188 90.101562 25.996094 89.898438 25.050781 C 89.75 24.203125 89.699219 24.203125 89.351562 25.097656 Z M 89.351562 25.097656 "/>
<path style=" stroke:none;fill-rule:nonzero;fill:rgb(0%,0%,0%);fill-opacity:1;" d="M 100.75 30.328125 C 100.601562 30.578125 100.699219 30.925781 101 31.125 C 101.25 31.273438 101.5 31.074219 101.5 30.675781 C 101.5 29.78125 101.199219 29.628906 100.75 30.328125 Z M 100.75 30.328125 "/>
<path style=" stroke:none;fill-rule:nonzero;fill:rgb(0%,0%,0%);fill-opacity:1;" d="M 124.25 56.273438 C 124.050781 56.570312 124.101562 57.070312 124.398438 57.367188 C 125.050781 58.015625 125.550781 57.167969 125.050781 56.324219 C 124.699219 55.824219 124.550781 55.824219 124.25 56.273438 Z M 124.25 56.273438 "/>
<path style=" stroke:none;fill-rule:nonzero;fill:rgb(0%,0%,0%);fill-opacity:1;" d="M 115.25 22.90625 C 115.101562 23.207031 115.300781 23.257812 115.699219 23.105469 C 116.601562 22.757812 116.75 22.410156 116.050781 22.410156 C 115.75 22.410156 115.398438 22.609375 115.25 22.90625 Z M 115.25 22.90625 "/>
<path style=" stroke:none;fill-rule:nonzero;fill:rgb(0%,0%,0%);fill-opacity:1;" d="M 41.898438 29.828125 C 38.601562 32.171875 38.550781 32.21875 39.351562 33.316406 C 40.101562 34.410156 40.101562 34.460938 39.050781 33.914062 C 37.898438 33.265625 36.648438 33.714844 35.550781 35.058594 C 35 35.707031 35.050781 36.203125 35.699219 37.847656 C 37.050781 41.234375 36.601562 41.683594 34.050781 39.539062 C 32.351562 38.144531 32.050781 38.246094 30.300781 40.933594 C 29.648438 41.929688 29.601562 42.28125 30.101562 42.480469 C 30.550781 42.679688 30.5 42.777344 29.949219 42.777344 C 29.199219 42.828125 25.5 46.613281 25.5 47.359375 C 25.5 47.558594 24.75 49.351562 23.800781 51.394531 C 22 55.328125 20.351562 60.257812 20.550781 61.003906 C 20.648438 61.304688 20.449219 62 20.101562 62.648438 C 19.75 63.296875 19.5 64.492188 19.601562 65.386719 C 19.699219 66.679688 20.101562 67.179688 21.648438 67.925781 C 25.25 69.667969 27.699219 68.722656 28.300781 65.285156 C 29.449219 58.960938 35.199219 47.058594 37.101562 47.058594 C 37.398438 47.058594 37.699219 46.660156 37.800781 46.164062 C 37.898438 45.316406 42.5 39.988281 42.5 40.6875 C 42.5 40.835938 43 40.386719 43.550781 39.640625 C 44.148438 38.84375 44.898438 38.394531 45.351562 38.542969 C 45.75 38.695312 45.949219 38.644531 45.800781 38.394531 C 45.5 37.898438 49.75 34.761719 50.148438 35.160156 C 51.050781 36.054688 50 33.714844 48.851562 32.171875 C 48.050781 31.175781 47.550781 30.179688 47.75 29.929688 C 47.898438 29.679688 47.75 29.28125 47.449219 29.082031 C 47.050781 28.832031 46.949219 28.984375 47.25 29.429688 C 47.449219 29.828125 47.101562 29.53125 46.449219 28.785156 L 45.25 27.441406 Z M 46.75 31.871094 C 47.851562 33.464844 48.050781 34.011719 47.550781 34.511719 C 47.050781 34.960938 46.800781 34.910156 46.300781 34.210938 C 45.949219 33.765625 45.398438 33.367188 45.101562 33.367188 C 44.199219 33.367188 43.851562 34.363281 44.5 35.109375 C 45.101562 35.804688 44.800781 36.851562 44 36.851562 C 43.800781 36.851562 42.898438 35.90625 42.050781 34.761719 C 40.851562 33.167969 40.648438 32.519531 41.101562 32.019531 C 41.550781 31.472656 41.800781 31.472656 42.449219 32.070312 C 43.648438 33.117188 45 32.320312 44 31.125 C 43.398438 30.425781 43.398438 30.226562 44 29.878906 C 44.898438 29.332031 45.050781 29.429688 46.75 31.871094 Z M 40.648438 36.105469 C 43.148438 37.152344 43.398438 37.898438 41.5 38.34375 C 40.75 38.496094 40.148438 39.09375 40 39.839844 C 39.550781 41.832031 38.699219 41.484375 37.550781 38.792969 C 36.75 36.800781 36.648438 36.054688 37.050781 35.507812 C 37.398438 35.160156 37.800781 34.910156 37.949219 34.960938 C 38.148438 35.058594 39.351562 35.558594 40.648438 36.105469 Z M 34.398438 41.582031 C 35.851562 42.777344 35.851562 42.777344 36.75 41.832031 C 38.351562 40.089844 38.75 41.53125 37.25 43.523438 L 35.898438 45.269531 L 33.699219 43.476562 C 31.449219 41.582031 31.25 41.285156 31.851562 40.6875 C 32.398438 40.136719 32.851562 40.289062 34.398438 41.582031 Z M 32.898438 44.621094 C 35 46.066406 33.800781 49.800781 31.148438 49.800781 C 29.75 49.800781 28 48.15625 28 46.8125 C 28 45.566406 29.699219 43.824219 30.898438 43.824219 C 31.398438 43.824219 32.300781 44.171875 32.898438 44.621094 Z M 27.148438 50.347656 C 27.398438 51.292969 27.699219 51.394531 29.449219 51.09375 C 30.601562 50.945312 31.5 50.894531 31.5 50.996094 C 31.5 51.992188 30.699219 52.789062 29.699219 52.789062 C 28.351562 52.789062 28.101562 53.632812 29.25 54.480469 C 29.699219 54.828125 29.800781 55.277344 29.601562 55.675781 C 29.25 56.171875 28.601562 56.074219 26.550781 55.226562 C 24 54.132812 23.351562 52.988281 25.449219 53.085938 C 26.648438 53.136719 26.699219 53.035156 26 51.792969 C 25.5 50.84375 25.800781 49.300781 26.5 49.300781 C 26.699219 49.300781 27 49.800781 27.148438 50.347656 Z M 24.5 55.972656 C 24.5 56.125 24.300781 56.769531 24 57.46875 C 23.699219 58.316406 23.699219 58.761719 24 58.761719 C 24.300781 58.761719 24.75 58.164062 25 57.46875 C 25.300781 56.769531 25.699219 56.324219 26 56.523438 C 26.300781 56.671875 26.300781 57.269531 26 58.015625 C 25.699219 58.761719 25.699219 59.359375 26.050781 59.511719 C 26.300781 59.710938 26.75 59.113281 27.101562 58.265625 C 27.949219 55.824219 28.851562 57.167969 28.050781 59.757812 C 27.75 60.855469 27.398438 61.75 27.300781 61.75 C 27.101562 61.75 22.25 60.109375 22.101562 60.007812 C 21.648438 59.609375 23.25 55.777344 23.851562 55.777344 C 24.199219 55.777344 24.5 55.875 24.5 55.972656 Z M 23 62.449219 C 23 62.847656 22.800781 63.34375 22.5 63.496094 C 22.25 63.644531 22 64.09375 22 64.390625 C 22 64.738281 22.5 64.390625 23.050781 63.59375 C 24.25 62 25.75 61.851562 26.5 63.195312 C 27.101562 64.390625 26.398438 66.632812 25.25 67.03125 C 24 67.527344 23.75 66.832031 24.75 65.734375 C 25.25 65.1875 25.5 64.589844 25.300781 64.390625 C 25.101562 64.191406 24.449219 64.640625 23.851562 65.4375 C 23.101562 66.382812 22.5 66.679688 21.851562 66.480469 C 20.949219 66.132812 20.800781 65.683594 21 63.992188 C 21.199219 62.199219 23 60.855469 23 62.449219 Z M 23 62.449219 "/>
<path style=" stroke:none;fill-rule:nonzero;fill:rgb(0%,0%,0%);fill-opacity:1;" d="M 38.5 37.347656 C 38.5 37.996094 39.398438 38.445312 39.699219 37.898438 C 39.851562 37.648438 39.648438 37.347656 39.25 37.152344 C 38.851562 37 38.5 37.101562 38.5 37.347656 Z M 38.5 37.347656 "/>
<path style=" stroke:none;fill-rule:nonzero;fill:rgb(0%,0%,0%);fill-opacity:1;" d="M 29.949219 46.113281 C 29.398438 46.8125 29.449219 47.011719 30.25 47.609375 C 31.398438 48.453125 32.199219 48.304688 32.398438 47.160156 C 32.648438 45.964844 30.75 45.167969 29.949219 46.113281 Z M 29.949219 46.113281 "/>
<path style=" stroke:none;fill-rule:nonzero;fill:rgb(0%,0%,0%);fill-opacity:1;" d="M 62.75 34.410156 C 61.949219 34.859375 60.75 35.160156 60.101562 35.007812 C 58.898438 34.710938 56 35.707031 56 36.402344 C 56 36.601562 55.101562 37.050781 54 37.347656 C 52.949219 37.648438 51.699219 38.195312 51.300781 38.59375 C 50.898438 38.992188 50.351562 39.339844 50.050781 39.339844 C 49.75 39.339844 49.5 39.691406 49.5 40.089844 C 49.5 40.488281 49.199219 40.835938 48.800781 40.835938 C 48.398438 40.835938 47.449219 41.582031 46.601562 42.527344 C 45.75 43.476562 45 44.121094 44.851562 44.023438 C 44.199219 43.375 45.5 47.957031 46.199219 48.753906 C 46.648438 49.25 46.851562 49.800781 46.699219 49.949219 C 46.5 50.148438 45.949219 49.550781 45.5 48.652344 C 44.449219 46.660156 41.898438 46.164062 41.050781 47.757812 C 40.75 48.304688 40.148438 49.101562 39.699219 49.5 C 39.199219 50.046875 39.050781 50.644531 39.300781 51.195312 C 39.5 51.640625 39.601562 52.238281 39.550781 52.4375 C 39.5 52.6875 39.699219 52.738281 39.949219 52.589844 C 40.199219 52.4375 40.601562 52.589844 40.898438 52.9375 C 41.300781 53.386719 40.949219 53.535156 39.5 53.484375 C 38.398438 53.484375 37.648438 53.632812 37.800781 53.832031 C 37.949219 54.082031 37.699219 54.929688 37.25 55.824219 C 36.800781 56.671875 36.550781 57.667969 36.699219 58.066406 C 36.851562 58.464844 36.398438 59.808594 35.75 61.105469 C 34.449219 63.496094 34.199219 65.835938 34.949219 67.875 C 35.351562 68.972656 35.300781 69.023438 34.25 68.824219 C 32.601562 68.523438 31.851562 70.167969 32.25 73.207031 C 32.601562 75.59375 32.648438 75.644531 34.648438 76.042969 C 35.949219 76.34375 36.800781 76.789062 36.898438 77.289062 C 37 77.886719 36.800781 78.035156 36.148438 77.886719 C 34.601562 77.488281 33.398438 78.78125 33.351562 81.023438 C 33.300781 82.167969 33.398438 82.964844 33.550781 82.867188 C 33.75 82.765625 34 83.015625 34.199219 83.414062 C 34.351562 83.8125 35.398438 84.308594 36.5 84.460938 C 39.300781 84.90625 39.5 85.605469 36.75 85.257812 C 34.148438 85.007812 34.101562 85.105469 35.25 88.992188 C 36.050781 91.582031 38.75 94.667969 40.949219 95.367188 C 41.75 95.613281 41.898438 95.863281 41.550781 96.5625 C 41.199219 97.160156 41.449219 97.957031 42.398438 99.5 C 43.449219 101.144531 43.949219 101.492188 44.851562 101.292969 C 45.699219 101.042969 45.898438 101.191406 45.699219 101.941406 C 45.449219 103.035156 48.300781 106.273438 49.25 105.875 C 49.601562 105.773438 50.050781 105.972656 50.199219 106.371094 C 50.648438 107.46875 50.550781 107.667969 49.898438 107.269531 C 49.601562 107.070312 49.5 107.117188 49.699219 107.46875 C 49.851562 107.765625 49.800781 108.113281 49.5 108.3125 C 48.800781 108.761719 48.851562 110.40625 49.648438 110.703125 C 50.101562 110.855469 50 111.152344 49.398438 111.601562 C 48.851562 112.046875 48.550781 112.84375 48.648438 113.792969 C 48.800781 115.535156 49.25 115.585938 53.75 114.339844 C 57.851562 113.242188 60.148438 113.292969 61.300781 114.589844 C 62.101562 115.484375 62.601562 115.585938 64.550781 115.335938 C 66 115.136719 67.601562 115.285156 69.050781 115.785156 C 71 116.429688 71.148438 116.429688 70.300781 115.785156 C 68.050781 114.039062 63.800781 112.84375 59.75 112.84375 C 57.550781 112.796875 55 112.945312 54.050781 113.144531 C 52.648438 113.492188 52.5 113.441406 52.949219 112.84375 C 53.398438 112.296875 53.25 112.199219 52.148438 112.398438 C 50.851562 112.546875 50.800781 112.546875 51.898438 112.046875 C 52.5 111.800781 53.5 111.351562 54.148438 111.101562 C 54.949219 110.753906 54.75 110.703125 53.25 110.902344 C 50.398438 111.300781 51.449219 110.554688 54.851562 109.757812 C 61.199219 108.265625 65.050781 109.261719 69.75 113.640625 C 71.550781 115.285156 73 116.332031 73 115.933594 C 73 115.535156 72.851562 115.035156 72.648438 114.738281 C 72.398438 114.488281 72.601562 114.6875 73.101562 115.136719 C 73.601562 115.683594 74.648438 116.03125 75.851562 116.03125 C 77.449219 116.03125 78.101562 115.683594 79.949219 113.792969 C 82.5 111.203125 85.398438 109.707031 88.601562 109.261719 C 91.148438 108.910156 97.300781 109.859375 97.851562 110.703125 C 98.050781 111.054688 97.601562 111.101562 96.5 110.855469 C 94.398438 110.457031 94.699219 110.804688 97.300781 111.800781 L 99.25 112.546875 L 97.5 112.296875 C 95.851562 112.097656 95.800781 112.097656 96.75 112.796875 C 97.648438 113.492188 97.601562 113.542969 96 113.195312 C 92.601562 112.445312 86.398438 112.796875 83.25 113.941406 C 81.648438 114.539062 79.949219 115.386719 79.5 115.785156 C 78.851562 116.480469 79 116.480469 80.949219 115.785156 C 82.449219 115.285156 83.949219 115.136719 85.5 115.335938 C 87.550781 115.585938 88 115.484375 88.898438 114.539062 C 89.851562 113.492188 90.25 113.441406 93 113.742188 C 94.648438 113.941406 96.949219 114.4375 98.101562 114.835938 C 99.25 115.234375 100.449219 115.484375 100.800781 115.335938 C 101.699219 114.988281 101.550781 112.148438 100.601562 111.550781 C 99.898438 111.152344 99.851562 111.003906 100.449219 110.605469 C 100.851562 110.355469 101 109.808594 100.800781 109.308594 C 100.550781 108.664062 101.050781 107.914062 102.601562 106.519531 C 103.75 105.523438 104.898438 104.777344 105.199219 104.925781 C 105.449219 105.078125 105.5 105.027344 105.351562 104.726562 C 105.199219 104.480469 105.800781 103.484375 106.75 102.585938 C 107.699219 101.640625 108.5 100.59375 108.5 100.246094 C 108.5 99.949219 109 99.101562 109.648438 98.453125 C 111.75 96.210938 113 94.519531 113 94.070312 C 113 93.773438 113.199219 93.671875 113.398438 93.820312 C 113.648438 93.972656 113.800781 93.574219 113.75 92.976562 C 113.699219 92.378906 114.050781 91.28125 114.550781 90.535156 C 115.101562 89.839844 115.5 88.84375 115.5 88.394531 C 115.5 87.945312 115.75 87.148438 116.050781 86.601562 C 116.550781 85.605469 116.851562 84.109375 117.300781 80.425781 C 117.449219 79.332031 117.699219 77.488281 117.851562 76.292969 C 118 75.148438 117.898438 74.203125 117.699219 74.203125 C 117.449219 74.203125 117.351562 72.90625 117.449219 71.363281 C 117.601562 68.324219 116.550781 61.253906 115.898438 61.253906 C 115.699219 61.253906 115.5 60.804688 115.5 60.207031 C 115.5 59.0625 114.699219 57.417969 113.648438 56.371094 C 113.300781 56.023438 113 55.328125 113 54.828125 C 113 54.332031 112.550781 53.535156 111.949219 52.988281 C 111.351562 52.4375 111.050781 51.691406 111.199219 51.144531 C 111.300781 50.644531 111.300781 50.296875 111.148438 50.445312 C 110.699219 50.894531 108.398438 47.855469 108.75 47.308594 C 108.949219 47.011719 108.898438 46.859375 108.648438 46.910156 C 108.449219 46.960938 106.5 45.316406 104.398438 43.175781 C 102.300781 41.085938 100.199219 39.339844 99.75 39.339844 C 99.300781 39.339844 99.101562 39.09375 99.25 38.84375 C 99.449219 38.542969 99.398438 38.394531 99.148438 38.445312 C 98.949219 38.496094 98.101562 38.144531 97.351562 37.648438 C 96.601562 37.152344 95.851562 36.851562 95.648438 37.050781 C 95.449219 37.199219 95 37.050781 94.550781 36.652344 C 94.101562 36.253906 92.75 35.558594 91.5 35.109375 C 87.351562 33.613281 87.300781 33.613281 87.601562 34.761719 C 87.898438 35.757812 87.851562 35.757812 86.75 35.058594 C 86.101562 34.609375 84.800781 34.363281 83.800781 34.460938 L 82.050781 34.609375 L 83.5 36.953125 L 84.949219 39.242188 L 82.75 40.1875 C 81.5 40.6875 80.5 41.234375 80.5 41.433594 C 80.5 41.632812 81.101562 42.179688 81.898438 42.679688 C 82.648438 43.175781 83.398438 43.773438 83.601562 44.074219 C 83.800781 44.320312 84.699219 44.820312 85.601562 45.117188 C 86.5 45.417969 87.199219 45.964844 87.101562 46.3125 C 87.050781 46.613281 87.199219 46.761719 87.449219 46.613281 C 88.851562 45.765625 98.550781 53.035156 97.699219 54.332031 C 97.550781 54.582031 97.699219 54.730469 98 54.679688 C 98.648438 54.53125 101.800781 59.160156 103.449219 62.648438 C 105.699219 67.429688 106.398438 77.339844 104.800781 82.019531 C 104.300781 83.464844 103.699219 84.558594 103.5 84.410156 C 103.25 84.261719 103.199219 84.609375 103.351562 85.105469 C 103.550781 85.902344 102.398438 88.394531 101.449219 89.140625 C 101.300781 89.289062 100.800781 90.085938 100.351562 90.933594 C 99.351562 92.875 95.800781 96.710938 95.351562 96.363281 C 95.148438 96.210938 95.101562 96.261719 95.25 96.460938 C 95.398438 96.609375 95.050781 97.109375 94.449219 97.507812 C 92.851562 98.601562 92.101562 97.457031 93.601562 96.3125 L 94.851562 95.414062 L 93.199219 92.527344 C 92.300781 90.933594 91.699219 89.640625 91.898438 89.640625 C 92.101562 89.640625 92.898438 90.734375 93.648438 92.128906 C 94.398438 93.472656 95.300781 94.71875 95.601562 94.917969 C 95.898438 95.117188 96 95.066406 95.851562 94.769531 C 95.449219 94.121094 97.199219 92.476562 97.75 92.976562 C 97.949219 93.222656 98 93.074219 97.800781 92.777344 C 97.601562 92.429688 98.25 90.984375 99.25 89.539062 C 100.949219 87 101 86.800781 101 82.167969 C 101 79.578125 100.75 77.089844 100.5 76.691406 C 100.101562 76.09375 98.101562 75.894531 89.148438 75.695312 C 79.300781 75.445312 78.25 75.347656 78.101562 74.550781 C 77.949219 73.753906 78.699219 73.703125 88.699219 73.703125 C 101.648438 73.703125 101 74.101562 101 66.78125 C 101 61.800781 100.648438 60.753906 97.449219 56.820312 C 96.648438 55.875 96.199219 54.878906 96.351562 54.628906 C 96.5 54.332031 96.398438 54.28125 96.148438 54.429688 C 95.5 54.828125 94.351562 53.585938 94.898438 53.035156 C 95.101562 52.789062 95 52.789062 94.648438 52.988281 C 94.351562 53.136719 93.949219 53.085938 93.75 52.789062 C 93.601562 52.488281 92.199219 51.492188 90.699219 50.546875 C 88.050781 48.851562 87.851562 48.804688 82.851562 48.804688 L 77.699219 48.804688 L 77.699219 42.179688 C 77.648438 35.007812 77.550781 33.765625 76.898438 34.164062 C 76.699219 34.3125 76.5 34.164062 76.5 33.914062 C 76.5 32.769531 74.949219 33.464844 73.949219 34.960938 C 73.050781 36.402344 72.949219 37.25 73.101562 42.726562 L 73.25 48.851562 L 67.148438 48.953125 C 63.648438 49.003906 61.199219 48.851562 61.351562 48.605469 C 61.550781 48.355469 61.398438 48.304688 61.050781 48.503906 C 60.75 48.703125 60.601562 49.050781 60.75 49.300781 C 60.851562 49.5 60.351562 49.949219 59.550781 50.296875 C 58.75 50.597656 56.550781 52.488281 54.648438 54.429688 C 52.800781 56.371094 51.050781 57.917969 50.851562 57.867188 C 50.601562 57.816406 50.550781 57.964844 50.699219 58.214844 C 50.898438 58.464844 50.550781 59.460938 50 60.355469 C 49.199219 61.703125 49 62.847656 49 66.730469 C 49 74.101562 48.25 73.703125 61.800781 73.703125 C 72.25 73.703125 73.050781 73.753906 72.898438 74.550781 C 72.75 75.347656 71.699219 75.445312 61.351562 75.695312 C 51.949219 75.894531 49.898438 76.09375 49.5 76.691406 C 48.75 77.886719 48.898438 86.300781 49.699219 88.195312 C 50.351562 89.6875 50.449219 89.789062 50.800781 88.890625 C 51 88.34375 51.449219 87.546875 51.75 87.148438 C 52.101562 86.75 52.648438 85.605469 52.949219 84.660156 C 53.550781 82.765625 56.449219 78.933594 56.898438 79.378906 C 57.050781 79.53125 56.75 80.128906 56.25 80.675781 C 55.199219 81.820312 55.800781 81.96875 57.199219 80.925781 C 58.300781 80.078125 60.75 79.878906 60.25 80.675781 C 60.101562 80.925781 59.550781 81.171875 59.050781 81.171875 C 58.550781 81.171875 57.898438 81.472656 57.601562 81.820312 C 57.148438 82.320312 57.398438 82.417969 58.699219 82.269531 C 59.75 82.167969 60.550781 82.367188 60.949219 82.867188 C 61.75 83.8125 61.25 84.609375 60.398438 83.761719 C 59.550781 82.917969 58.25 83.015625 57.449219 84.011719 C 56.851562 84.757812 56.851562 84.808594 57.699219 84.507812 C 59.148438 83.960938 61 85.40625 60.949219 87.050781 C 60.949219 87.796875 60.75 88.84375 60.550781 89.339844 C 60.148438 90.386719 56.699219 91.632812 54.148438 91.632812 C 52.351562 91.632812 52.050781 92.128906 53.25 93.125 C 53.648438 93.472656 53.851562 93.972656 53.648438 94.269531 C 53.5 94.519531 53.550781 94.617188 53.851562 94.46875 C 54.101562 94.320312 55.101562 94.96875 56.050781 95.964844 C 57.648438 97.605469 57.699219 97.707031 56.5 97.359375 C 54 96.609375 52.550781 95.613281 52.800781 94.867188 C 53 94.46875 52.5 93.324219 51.75 92.328125 C 50.648438 90.933594 50.101562 90.585938 49.050781 90.734375 C 47.851562 90.882812 47.75 90.785156 47.699219 89.140625 C 47.699219 88.195312 47.550781 86.949219 47.398438 86.402344 C 47.25 85.855469 46.851562 84.460938 46.550781 83.316406 C 46.25 82.167969 45.75 81.074219 45.5 80.925781 C 45.199219 80.773438 45 79.828125 45 78.832031 C 45 77.6875 44.550781 76.441406 43.75 75.394531 C 42.898438 74.300781 42.699219 73.703125 43.148438 73.554688 C 43.5 73.453125 43.75 72.359375 43.800781 70.664062 C 43.851562 67.777344 44.25 66.53125 45.050781 66.980469 C 45.300781 67.128906 45.351562 66.929688 45.199219 66.480469 C 45 66.082031 45.148438 65.386719 45.5 64.988281 C 45.800781 64.640625 46.199219 63.59375 46.351562 62.699219 C 46.449219 61.800781 47.101562 60.65625 47.75 60.15625 C 48.398438 59.660156 49.050781 58.5625 49.25 57.765625 C 49.449219 56.921875 49.800781 56.273438 50 56.273438 C 50.25 56.273438 51 55.476562 51.648438 54.53125 C 52.300781 53.585938 53 52.9375 53.25 53.1875 C 53.449219 53.386719 53.351562 53.035156 53.050781 52.390625 C 52.550781 51.441406 52.601562 51.242188 53.351562 50.996094 C 54.898438 50.496094 57.5 49.101562 57.5 48.753906 C 57.5 48.554688 58.300781 48.253906 59.25 48.105469 C 61.050781 47.757812 62 46.113281 61.199219 44.71875 C 61 44.371094 61.351562 44.570312 61.898438 45.167969 C 62.949219 46.214844 63 46.214844 64.898438 45.316406 C 66.25 44.671875 66.949219 43.972656 67.101562 43.078125 C 67.25 42.378906 67.25 41.929688 67.101562 42.082031 C 66.949219 42.230469 66.601562 41.832031 66.25 41.183594 C 65.898438 40.535156 65.851562 39.988281 66.148438 39.789062 C 66.699219 39.390625 67.5 34.808594 66.949219 35.109375 C 66.75 35.257812 66.5 35.058594 66.351562 34.660156 C 65.898438 33.566406 64.351562 33.464844 62.75 34.410156 Z M 66.050781 35.707031 C 66.648438 37.300781 65.800781 39.339844 64.601562 39.339844 C 64.148438 39.339844 63.398438 39.691406 62.898438 40.1875 C 62.050781 40.933594 62 40.933594 62.101562 39.789062 C 62.148438 39.140625 62 38.097656 61.800781 37.546875 C 61.550781 36.703125 61.800781 36.203125 62.800781 35.40625 C 64.601562 34.011719 65.398438 34.113281 66.050781 35.707031 Z M 85.75 35.558594 C 86.949219 36.054688 87.550781 36.703125 87.75 37.699219 C 88.300781 40.089844 88.449219 40.335938 89.25 40.335938 C 89.75 40.335938 89.898438 40.089844 89.699219 39.738281 C 89.148438 38.894531 88.601562 34.859375 89 34.859375 C 89.148438 34.859375 89.800781 35.308594 90.398438 35.855469 C 91.648438 37 92.25 38.894531 91.851562 40.335938 C 91.699219 41.035156 91.949219 41.53125 92.601562 41.882812 C 93.5 42.378906 93.601562 42.328125 93.25 41.53125 C 93.050781 40.984375 92.75 39.589844 92.601562 38.394531 C 92.351562 36.304688 92.398438 36.253906 93.398438 36.800781 C 94.898438 37.597656 95.601562 39.09375 95.449219 41.234375 C 95.300781 43.175781 95.699219 44.320312 96.550781 44.320312 C 96.851562 44.320312 96.851562 43.972656 96.5 43.375 C 96.25 42.828125 96 41.382812 96 40.136719 C 96 37.996094 96.050781 37.898438 97 38.445312 C 98.449219 39.390625 99.101562 41.433594 98.75 43.921875 C 98.449219 45.816406 98.199219 46.214844 96.851562 46.710938 C 96 47.011719 95.449219 47.410156 95.601562 47.609375 C 95.75 47.757812 96.601562 47.507812 97.5 47.058594 C 98.800781 46.414062 99.199219 46.363281 99.851562 46.910156 C 100.550781 47.457031 100.601562 47.410156 100.25 46.3125 C 99.800781 44.96875 99.75 44.570312 99.898438 41.882812 L 100 40.1875 L 101.25 41.332031 C 102.601562 42.628906 102.851562 44.222656 101.949219 46.761719 C 101.449219 48.15625 101.5 48.503906 102.25 49.203125 C 103.050781 50 103.101562 50 102.800781 48.953125 C 102.601562 48.40625 102.75 46.8125 103.050781 45.515625 L 103.648438 43.175781 L 104.601562 44.273438 C 105.699219 45.667969 105.75 47.257812 104.75 49.648438 C 104.199219 50.894531 104.148438 51.640625 104.5 51.992188 C 104.851562 52.339844 105 52.238281 105 51.640625 C 105 50.398438 106.199219 46.8125 106.601562 46.8125 C 106.800781 46.8125 107.199219 47.257812 107.5 47.757812 C 108.851562 50.347656 107.101562 54.183594 104.199219 55.078125 L 102.25 55.675781 L 104.148438 55.726562 C 105.199219 55.777344 106 55.527344 106 55.226562 C 106 54.828125 106.25 54.828125 106.75 55.277344 C 107.398438 55.824219 107.5 55.675781 107.5 54.628906 C 107.5 53.882812 107.898438 52.539062 108.351562 51.542969 C 109.199219 49.800781 109.199219 49.800781 109.851562 50.894531 C 110.800781 52.589844 110.648438 53.933594 109.25 55.972656 C 108.601562 56.96875 108.148438 58.117188 108.300781 58.515625 C 108.5 59.011719 109.101562 58.316406 110 56.421875 L 111.351562 53.535156 L 112 54.878906 C 112.75 56.472656 112.398438 58.214844 110.851562 60.109375 C 110.199219 60.855469 109.800781 61.902344 109.898438 62.347656 C 110.101562 63.34375 111 63.59375 111 62.648438 C 111 61.703125 113.601562 58.265625 114.050781 58.5625 C 114.300781 58.714844 114.5 59.558594 114.5 60.507812 C 114.5 61.800781 114.050781 62.597656 112.75 63.894531 C 111.101562 65.484375 110.449219 67.230469 111.5 67.230469 C 111.800781 67.230469 112 66.980469 112 66.679688 C 112 66.382812 112.800781 65.238281 113.75 64.191406 L 115.5 62.25 L 115.800781 63.542969 C 116.25 65.285156 115.351562 66.980469 113.25 68.324219 C 112.300781 68.972656 111.5 69.867188 111.5 70.367188 C 111.5 71.015625 112.25 70.515625 114 68.625 L 116.449219 65.984375 L 116.5 67.628906 C 116.5 68.523438 116.25 69.71875 116 70.21875 C 115.601562 71.015625 115.601562 71.113281 116.25 70.914062 C 116.75 70.714844 117 70.914062 117 71.511719 C 117 73.207031 115.800781 74.796875 113.75 75.945312 C 112.449219 76.640625 111.699219 77.4375 111.601562 78.234375 L 111.398438 79.429688 L 112.851562 78.183594 C 114.199219 76.988281 116.199219 75.695312 116.75 75.695312 C 116.898438 75.695312 117 76.144531 117 76.640625 C 117 78.085938 115.449219 79.578125 113.25 80.328125 C 112.148438 80.726562 111.199219 81.371094 111.101562 81.820312 C 110.949219 82.46875 111.199219 82.46875 112.851562 81.671875 C 116.050781 80.128906 116.949219 79.976562 116.699219 81.023438 C 116.199219 82.816406 115 83.8125 112.699219 84.410156 C 111 84.808594 110.199219 85.304688 109.898438 86.152344 C 109.550781 87.097656 109.601562 87.199219 110.148438 86.699219 C 110.648438 86.300781 115.050781 84.707031 115.851562 84.660156 C 115.851562 84.660156 115.800781 85.105469 115.648438 85.65625 C 115.199219 87.296875 113.050781 88.644531 110.949219 88.644531 C 109.898438 88.644531 108.898438 88.890625 108.75 89.191406 C 108.25 89.988281 108.800781 90.285156 109.851562 89.738281 C 111.050781 89.140625 114.5 88.59375 114.5 89.042969 C 114.5 89.242188 114.050781 89.9375 113.550781 90.636719 C 112.800781 91.582031 112 91.878906 109.550781 92.128906 C 107.398438 92.328125 106.5 92.230469 106.5 91.832031 C 106.5 91.53125 106.101562 90.933594 105.648438 90.585938 C 105.199219 90.1875 104.898438 90.085938 105.050781 90.386719 C 106.648438 93.671875 106.351562 93.472656 109.398438 93.074219 C 110.949219 92.875 112.300781 92.777344 112.449219 92.925781 C 112.550781 93.027344 112.148438 93.722656 111.449219 94.417969 C 110.449219 95.515625 109.898438 95.664062 107.550781 95.566406 C 106.050781 95.464844 104.75 95.613281 104.648438 95.914062 C 104.550781 96.164062 105.699219 96.3125 107.300781 96.261719 C 110.351562 96.164062 110.601562 96.609375 108.351562 98.304688 C 107.148438 99.199219 106.75 99.25 104.898438 98.753906 C 103.300781 98.304688 102.601562 98.304688 102 98.753906 C 101.398438 99.25 101.351562 99.199219 101.800781 98.601562 C 102.25 98.054688 102.148438 97.507812 101.398438 96.363281 L 100.449219 94.867188 L 100.75 96.609375 C 101.351562 99.996094 101.449219 100.097656 103.398438 100.148438 C 104.398438 100.195312 105.800781 100.347656 106.5 100.546875 L 107.699219 100.894531 L 106.5 101.742188 C 105.851562 102.1875 104.75 102.585938 104.050781 102.585938 C 102.5 102.585938 99 101.542969 99.199219 101.144531 C 99.351562 100.992188 99.101562 100.296875 98.699219 99.597656 L 97.949219 98.355469 L 98.300781 99.847656 C 98.449219 100.644531 98.648438 101.589844 98.648438 101.890625 C 98.648438 102.238281 99.949219 102.636719 101.601562 102.785156 C 103.199219 102.984375 104.5 103.332031 104.5 103.582031 C 104.5 104.230469 102.398438 105.574219 101.351562 105.574219 C 99.648438 105.574219 96.898438 103.980469 96.351562 102.636719 C 96 101.941406 95.351562 101.042969 94.898438 100.695312 C 93.75 99.847656 93.75 98.652344 94.898438 98.253906 C 95.351562 98.054688 96.050781 97.507812 96.449219 96.960938 C 96.949219 96.261719 97.25 96.164062 97.5 96.609375 C 97.75 97.007812 98.050781 96.660156 98.398438 95.664062 C 98.699219 94.816406 99.300781 93.972656 99.75 93.820312 C 100.148438 93.671875 100.5 93.125 100.5 92.675781 C 100.550781 91.480469 101.851562 89.9375 102.148438 90.734375 C 102.351562 91.132812 102.449219 91.082031 102.449219 90.484375 C 102.5 90.039062 102.949219 88.792969 103.5 87.796875 C 104.050781 86.75 104.5 85.65625 104.5 85.304688 C 104.5 84.957031 104.75 84.660156 105 84.660156 C 105.300781 84.660156 105.5 84.011719 105.5 83.265625 C 105.5 82.46875 105.648438 81.671875 105.898438 81.472656 C 106.550781 80.773438 106.949219 74.5 106.398438 72.558594 C 106.101562 71.414062 106.199219 71.164062 106.800781 71.414062 C 107.449219 71.660156 107.449219 71.5625 106.75 70.617188 C 105.898438 69.371094 105.699219 67.476562 106.5 67.976562 C 106.800781 68.125 106.550781 67.476562 105.949219 66.53125 C 105.300781 65.4375 105.148438 64.738281 105.5 64.738281 C 105.800781 64.738281 105.648438 64.191406 105.050781 63.445312 C 104.449219 62.699219 104 61.851562 104 61.503906 C 104 61.152344 103.648438 60.605469 103.25 60.257812 C 101.800781 59.0625 102.449219 58.613281 105.25 58.863281 C 107.101562 59.011719 107.949219 58.914062 107.851562 58.5625 C 107.75 58.265625 106.699219 58.066406 105.398438 58.164062 C 103.550781 58.316406 102.898438 58.117188 101.699219 57.070312 C 100.75 56.222656 100.5 55.824219 101 55.777344 C 101.398438 55.777344 101 55.328125 100.148438 54.78125 C 98.449219 53.785156 98 52.789062 99.148438 52.789062 C 99.449219 52.738281 99.050781 52.4375 98.199219 52.089844 C 95.648438 50.945312 95.800781 50.445312 98.800781 50.046875 C 100.601562 49.847656 101.449219 49.550781 101.148438 49.25 C 100.851562 48.953125 100.148438 48.953125 99.300781 49.300781 C 97.25 50.046875 95.101562 49.898438 94.101562 48.902344 C 93.648438 48.453125 92.601562 47.757812 91.851562 47.457031 C 91.101562 47.109375 90.5 46.613281 90.5 46.3125 C 90.5 46.066406 90.101562 45.816406 89.601562 45.816406 C 87.800781 45.816406 88.050781 45.117188 90.300781 43.773438 C 91.699219 42.976562 92.398438 42.328125 92.050781 42.128906 C 91.75 41.929688 90.800781 42.328125 89.949219 43.027344 C 88.5 44.273438 85.648438 44.769531 84.851562 43.972656 C 84.648438 43.773438 85.550781 43.027344 86.800781 42.28125 C 88.050781 41.582031 88.898438 40.835938 88.601562 40.636719 C 88.351562 40.488281 87.550781 40.785156 86.851562 41.332031 C 85.550781 42.378906 82.800781 42.679688 82.300781 41.882812 C 82.148438 41.632812 83 41.035156 84.25 40.488281 C 86.300781 39.691406 87.199219 38.84375 86.050781 38.84375 C 85.648438 38.84375 83.5 35.65625 83.5 35.058594 C 83.5 34.710938 83.949219 34.808594 85.75 35.558594 Z M 60.800781 37.152344 C 61.351562 38.496094 61.398438 39.09375 61 39.589844 C 60.25 40.488281 62.300781 41.730469 63.148438 40.886719 C 63.449219 40.585938 63.851562 40.335938 64.050781 40.335938 C 64.851562 40.335938 66 41.980469 66 43.078125 C 66 45.019531 63.101562 45.515625 61.949219 43.773438 C 61.550781 43.226562 60.449219 42.578125 59.5 42.328125 L 57.75 41.929688 L 59.398438 41.882812 C 61.148438 41.832031 61.648438 40.835938 59.898438 40.835938 C 58.851562 40.835938 56 43.078125 56 43.921875 C 56 44.171875 56.648438 44.023438 57.449219 43.574219 C 58.898438 42.878906 58.949219 42.878906 60.050781 44.371094 C 61 45.714844 61.050781 46.015625 60.398438 46.613281 C 60 47.011719 59.050781 47.410156 58.25 47.457031 C 57.199219 47.558594 56.699219 47.210938 56.050781 46.113281 C 55.601562 45.316406 54.800781 44.472656 54.25 44.273438 C 53.300781 43.921875 53.300781 43.875 54.300781 43.875 C 55.351562 43.824219 56.449219 42.328125 55.449219 42.328125 C 54.800781 42.328125 52.25 44.820312 51.898438 45.816406 C 51.75 46.214844 51.5 46.414062 51.300781 46.214844 C 51.101562 46.066406 51.148438 45.46875 51.449219 44.917969 C 52.199219 43.476562 52.148438 42.082031 51.25 41.332031 C 50.25 40.488281 51.300781 38.992188 53.148438 38.542969 C 54.851562 38.195312 55.449219 38.644531 55.601562 40.488281 C 55.648438 41.234375 55.898438 41.832031 56.101562 41.832031 C 56.648438 41.832031 56.601562 40.6875 56 39.140625 C 55.601562 38.046875 55.75 37.746094 57.148438 36.652344 C 59.300781 34.960938 59.898438 35.007812 60.800781 37.152344 Z M 44.148438 48.15625 C 44.550781 48.652344 45 49.402344 45.101562 49.800781 C 45.199219 50.199219 45.449219 50.695312 45.648438 50.84375 C 45.898438 51.042969 45.449219 51.742188 44.699219 52.4375 C 43.949219 53.1875 43.449219 53.882812 43.601562 54.03125 C 44.148438 54.582031 45.898438 53.335938 46.601562 51.941406 C 47.550781 50 48.601562 49.550781 50.300781 50.347656 C 52.050781 51.195312 52.351562 52.390625 51.148438 53.984375 C 50.148438 55.425781 49.5 55.527344 47.199219 54.679688 C 45.851562 54.230469 45.351562 54.230469 44.300781 54.980469 C 43.601562 55.425781 43 56.074219 43 56.472656 C 43 56.820312 42.398438 57.71875 41.648438 58.464844 C 40.949219 59.160156 40.5 59.910156 40.648438 60.109375 C 41.199219 60.605469 43.050781 58.664062 43.851562 56.871094 C 44.398438 55.527344 44.75 55.277344 46.25 55.277344 C 48.300781 55.277344 48.898438 56.171875 48.199219 58.214844 C 47.800781 59.359375 47.449219 59.511719 45.300781 59.511719 C 43.25 59.558594 42.699219 59.757812 41.449219 61.152344 C 40.648438 62.050781 39.898438 62.746094 39.75 62.746094 C 39.601562 62.746094 39.5 62 39.5 61.105469 C 39.5 60.058594 39.101562 59.0625 38.5 58.515625 C 37.199219 57.367188 37.25 56.820312 38.648438 55.128906 L 39.75 53.683594 L 41.148438 54.78125 L 42.5 55.824219 L 42.5 54.78125 C 42.5 54.183594 41.949219 53.035156 41.25 52.191406 C 39.949219 50.644531 40.050781 49.847656 41.800781 48.105469 C 42.800781 47.109375 43.148438 47.109375 44.148438 48.15625 Z M 91.25 51.542969 C 93.5 52.4375 96 55.925781 96 58.117188 C 96 59.113281 96.5 60.507812 97.101562 61.351562 C 98.101562 62.746094 98.101562 62.945312 97.351562 63.496094 C 96.75 63.894531 96.5 64.839844 96.5 66.332031 C 96.5 68.773438 95.851562 69.71875 94.148438 69.71875 C 93.550781 69.71875 92.800781 70.117188 92.550781 70.566406 C 92.25 71.0625 92 71.214844 92 70.914062 C 92 70.117188 93 69.371094 94.648438 68.972656 C 95.898438 68.625 96 68.425781 96 65.984375 C 96 64.292969 96.25 63.246094 96.648438 63.097656 C 97.101562 62.945312 97.050781 62.5 96.398438 61.351562 C 95.898438 60.554688 95.5 59.210938 95.5 58.363281 C 95.5 56.570312 93.75 53.882812 91.550781 52.4375 C 89 50.695312 84.148438 50.796875 82 52.589844 C 78.550781 55.527344 77.949219 59.808594 80.550781 63.84375 C 82.050781 66.183594 83.148438 70.714844 82.199219 70.714844 C 81.949219 70.714844 81.75 69.71875 81.75 68.523438 C 81.75 66.929688 81.351562 65.882812 80.25 64.441406 C 78.449219 62.101562 77.898438 57.367188 79.148438 54.980469 C 81.300781 50.796875 86.199219 49.402344 91.25 51.542969 Z M 60.898438 51.890625 C 61.699219 52.6875 61.648438 53.035156 60.648438 54.03125 C 60.101562 54.582031 60 54.980469 60.398438 55.226562 C 60.699219 55.378906 61.148438 56.171875 61.449219 56.921875 C 61.898438 58.015625 62.25 58.265625 63.800781 58.265625 C 66.199219 58.265625 65.800781 59.460938 63.351562 59.660156 C 60.800781 59.859375 61 60.753906 63.648438 60.753906 C 64.800781 60.753906 66 60.953125 66.300781 61.152344 C 67.351562 61.851562 70.050781 66.878906 69.800781 67.578125 C 69.351562 68.722656 68.351562 68.074219 67.101562 65.835938 L 65.949219 63.742188 L 62.851562 63.742188 C 61.148438 63.742188 59.449219 63.542969 59.050781 63.296875 C 58.648438 63.046875 58.300781 61.550781 58.101562 59.511719 C 57.898438 56.722656 58 56.023438 58.699219 55.527344 C 59.398438 54.980469 59.449219 54.828125 58.75 54.28125 C 58 53.632812 57.75 52.191406 58.351562 51.640625 C 58.851562 51.09375 60.25 51.242188 60.898438 51.890625 Z M 89.101562 52.738281 C 89.550781 52.789062 90.601562 53.386719 91.449219 54.082031 C 93.300781 55.625 93.550781 57.917969 92 58.863281 C 91.449219 59.210938 91 59.808594 91 60.15625 C 91 60.953125 88.601562 61.902344 87.148438 61.601562 C 86.398438 61.453125 86.148438 61.601562 86.351562 62.101562 C 86.5 62.449219 86.351562 62.746094 86.050781 62.746094 C 85.75 62.746094 85.5 63.046875 85.5 63.445312 C 85.5 64.539062 83.949219 64.839844 82.648438 63.992188 C 80.050781 62.300781 79.800781 57.320312 82.25 54.78125 C 83.550781 53.386719 86.101562 52.339844 87.5 52.589844 C 87.898438 52.636719 88.648438 52.738281 89.101562 52.738281 Z M 56.5 61.453125 C 55.148438 63.695312 55.199219 65.835938 56.800781 67.675781 C 59.148438 70.464844 63.5 70.066406 65.199219 66.832031 C 65.800781 65.734375 66 65.636719 66.25 66.332031 C 66.699219 67.476562 65.75 69.070312 64.101562 69.917969 C 60.050781 72.011719 55.648438 70.316406 54.449219 66.234375 C 53.75 63.992188 54.050781 62.449219 55.550781 60.605469 C 57 58.714844 57.75 59.460938 56.5 61.453125 Z M 43.101562 69.320312 C 43.199219 69.621094 43.199219 70.515625 43.101562 71.363281 C 42.949219 72.410156 42.449219 73.007812 41.25 73.503906 C 39.699219 74.101562 39 75.046875 39 76.34375 C 39 76.640625 39.449219 76.390625 40 75.792969 C 40.601562 75.195312 41.199219 74.699219 41.398438 74.699219 C 43.148438 74.75 45.101562 79.679688 43.351562 79.679688 C 41.800781 79.679688 40.851562 81.570312 41.101562 84.160156 C 41.25 85.554688 41.148438 86.800781 40.949219 86.949219 C 40.699219 87.097656 40.5 86.800781 40.5 86.351562 C 40.5 84.90625 38.949219 83.664062 37.25 83.664062 C 35.25 83.664062 33.851562 82.21875 34.101562 80.328125 C 34.199219 79.179688 34.5 78.882812 35.800781 78.78125 C 36.949219 78.683594 37.5 78.335938 37.699219 77.539062 C 38.050781 76.042969 37.148438 75.195312 35.199219 75.195312 C 33.699219 75.195312 33.5 75.046875 33.25 73.503906 C 33.050781 72.558594 33 71.414062 33.101562 70.863281 C 33.300781 69.71875 35.25 69.421875 36.851562 70.265625 C 37.898438 70.816406 38.050781 71.214844 37.851562 72.507812 C 37.5 74.5 38.25 75.792969 38.800781 74.152344 C 39 73.503906 39.101562 72.257812 39.050781 71.414062 C 38.949219 70.265625 39.199219 69.769531 40.101562 69.320312 C 41.648438 68.625 42.851562 68.574219 43.101562 69.320312 Z M 86.398438 77.984375 C 86.601562 79.230469 85.449219 80.328125 84.351562 79.878906 C 83.25 79.480469 82.851562 78.183594 83.550781 77.339844 C 84.398438 76.34375 86.199219 76.742188 86.398438 77.984375 Z M 88.851562 84.460938 C 90.601562 86.550781 91.851562 88.445312 91.699219 88.691406 C 91.148438 89.640625 90.148438 89.042969 88.050781 86.402344 C 85.75 83.5625 85.101562 82.964844 86 84.609375 C 86.75 86.054688 86.601562 89.640625 85.699219 92.230469 C 85.050781 94.121094 84.699219 94.570312 83.449219 94.71875 C 82.648438 94.867188 82 94.917969 82 94.867188 C 82 94.769531 82.351562 93.773438 82.75 92.578125 C 83.601562 90.1875 84.050781 85.15625 83.398438 85.15625 C 82.898438 85.15625 82.851562 85.804688 82.949219 88.195312 C 83.101562 90.4375 82.199219 91.183594 81.5 89.390625 C 80.699219 87.296875 80.898438 85.703125 82.398438 83.117188 C 84.300781 79.730469 85.101562 79.878906 88.851562 84.460938 Z M 71.699219 84.460938 C 72.148438 85.65625 72.050781 88.644531 71.550781 88.644531 C 71.300781 88.644531 70.800781 89.488281 70.449219 90.484375 C 69.75 92.726562 67.898438 95.515625 67.648438 94.769531 C 67.550781 94.46875 66.949219 94.371094 66.351562 94.519531 C 65.449219 94.71875 65.351562 94.667969 65.851562 94.070312 C 66.351562 93.472656 66.148438 93.375 64.550781 93.523438 C 63.25 93.671875 62.5 93.472656 62 92.875 C 61.351562 92.128906 61.449219 92.078125 63.050781 92.378906 C 64.199219 92.578125 65.050781 92.429688 65.75 91.929688 C 66.75 91.183594 66.75 91.183594 65.648438 91.480469 C 62.851562 92.179688 61 88.84375 62.75 86.300781 C 63.449219 85.304688 66.351562 84.359375 68.101562 84.609375 C 68.601562 84.660156 69.398438 84.507812 69.851562 84.210938 C 71.101562 83.515625 71.351562 83.5625 71.699219 84.460938 Z M 78.601562 87.398438 C 79.300781 89.738281 78.648438 94.917969 77.148438 99.300781 L 75.75 103.332031 L 75.601562 97.207031 C 75.5 93.523438 75.699219 90.734375 76 90.136719 C 76.601562 88.992188 76.25 87.996094 75.351562 88.292969 C 74.949219 88.394531 74.800781 89.9375 74.898438 93.175781 C 75.050781 97.308594 75 97.757812 74.351562 96.859375 C 72.601562 94.417969 71.949219 89.640625 73 86.898438 C 73.449219 85.703125 73.699219 85.605469 75.851562 85.753906 C 77.949219 85.902344 78.199219 86.054688 78.601562 87.398438 Z M 50.949219 92.675781 C 51.800781 94.070312 51.851562 94.371094 51.148438 95.964844 C 50.75 96.910156 50.550781 97.855469 50.699219 98.003906 C 50.851562 98.105469 51.101562 97.855469 51.300781 97.40625 C 51.699219 96.410156 52.550781 96.410156 54.351562 97.457031 C 55.699219 98.203125 55.800781 98.402344 55.300781 99.847656 C 55 100.695312 54.601562 101.441406 54.398438 101.492188 C 53.398438 101.742188 52.5 101.542969 51.75 100.792969 C 51.300781 100.347656 50.800781 100.097656 50.648438 100.296875 C 50.5 100.445312 51.101562 101.242188 52 102.089844 C 53.148438 103.183594 53.351562 103.582031 52.800781 103.582031 C 52.300781 103.582031 51.25 103.929688 50.398438 104.378906 C 48.949219 105.125 48.851562 105.078125 47.699219 104.03125 C 47.050781 103.433594 46.5 102.6875 46.5 102.4375 C 46.5 101.542969 48.101562 100.097656 49.101562 100.097656 C 49.601562 100.097656 50 99.847656 50 99.597656 C 50 98.851562 47.300781 99 45.75 99.796875 C 44.449219 100.496094 44.300781 100.445312 43.199219 99.101562 C 41.648438 97.308594 41.699219 96.808594 43.5 95.863281 C 45 95.117188 45.050781 95.117188 46.75 96.859375 C 48.550781 98.652344 50.199219 99.199219 49.699219 97.90625 C 49.550781 97.507812 48.851562 96.808594 48.199219 96.363281 C 46.800781 95.464844 46.648438 94.070312 47.800781 92.378906 C 48.898438 90.734375 49.800781 90.835938 50.949219 92.675781 Z M 88 93.722656 C 88 94.667969 86.75 94.96875 86.25 94.070312 C 86.050781 93.820312 86.050781 92.976562 86.25 92.230469 C 86.550781 90.933594 86.601562 90.933594 87.300781 91.832031 C 87.699219 92.378906 88 93.222656 88 93.722656 Z M 70.398438 96.859375 C 74.75 99.199219 74.75 99.25 74.601562 107.714844 L 74.449219 115.085938 L 72.550781 113.394531 C 67.550781 108.910156 58.949219 106.917969 52.75 108.8125 C 51.398438 109.210938 50.25 109.460938 50.199219 109.410156 C 50 109.160156 59.101562 96.761719 60.101562 95.914062 C 61.800781 94.570312 67 95.015625 70.398438 96.859375 Z M 90.699219 96.363281 C 97.5 105.921875 99.898438 109.308594 99.851562 109.410156 C 99.800781 109.460938 98.5 109.160156 97 108.761719 C 90.351562 107.070312 82.898438 108.761719 77.601562 113.292969 L 75.5 115.136719 L 75.5 109.609375 C 75.5 106.621094 75.699219 104.03125 75.949219 103.832031 C 76.199219 103.683594 76.898438 102.140625 77.5 100.347656 C 78.550781 97.257812 78.648438 97.109375 81.148438 96.113281 C 84.550781 94.816406 89.648438 94.917969 90.699219 96.363281 Z M 75 98.601562 C 75 98.851562 74.898438 99.101562 74.800781 99.101562 C 74.648438 99.101562 74.398438 98.851562 74.25 98.601562 C 74.101562 98.304688 74.199219 98.105469 74.449219 98.105469 C 74.75 98.105469 75 98.304688 75 98.601562 Z M 100.75 106.621094 C 100.898438 106.820312 100.800781 107.167969 100.5 107.316406 C 99.949219 107.667969 98.5 106.769531 98.5 106.074219 C 98.5 105.574219 100.398438 106.023438 100.75 106.621094 Z M 64.050781 114.039062 C 64.601562 114.039062 64.898438 114.238281 64.75 114.539062 C 64.300781 115.285156 63.351562 115.136719 62.199219 114.238281 C 61.351562 113.542969 61.351562 113.492188 62.148438 113.742188 C 62.648438 113.890625 63.550781 114.039062 64.050781 114.039062 Z M 88 114.289062 C 87.300781 115.136719 85.699219 115.285156 85.25 114.589844 C 85.101562 114.339844 85.601562 113.992188 86.351562 113.890625 C 87.148438 113.792969 87.949219 113.640625 88.199219 113.59375 C 88.449219 113.59375 88.351562 113.890625 88 114.289062 Z M 88 114.289062 "/>
<path style=" stroke:none;fill-rule:nonzero;fill:rgb(0%,0%,0%);fill-opacity:1;" d="M 93.5 44.871094 C 92.601562 45.617188 92.550781 45.765625 93.25 45.417969 C 93.800781 45.167969 94.601562 44.871094 95 44.71875 C 95.398438 44.621094 95.5 44.371094 95.199219 44.222656 C 94.949219 44.023438 94.148438 44.371094 93.5 44.871094 Z M 93.5 44.871094 "/>
<path style=" stroke:none;fill-rule:nonzero;fill:rgb(0%,0%,0%);fill-opacity:1;" d="M 101 52.289062 C 99.949219 52.636719 100.050781 52.6875 101.898438 52.738281 C 103.050781 52.789062 104 52.539062 104 52.289062 C 104 51.691406 102.800781 51.691406 101 52.289062 Z M 101 52.289062 "/>
<path style=" stroke:none;fill-rule:nonzero;fill:rgb(0%,0%,0%);fill-opacity:1;" d="M 107.25 61.75 L 105.75 62.050781 L 107.449219 62.398438 C 109.25 62.746094 110 62.5 109.199219 61.851562 C 108.949219 61.601562 108.101562 61.550781 107.25 61.75 Z M 107.25 61.75 "/>
<path style=" stroke:none;fill-rule:nonzero;fill:rgb(0%,0%,0%);fill-opacity:1;" d="M 108.75 65.933594 C 110.351562 66.632812 110.800781 66.582031 110.25 65.785156 C 110.101562 65.484375 109.351562 65.238281 108.601562 65.238281 L 107.25 65.285156 Z M 108.75 65.933594 "/>
<path style=" stroke:none;fill-rule:nonzero;fill:rgb(0%,0%,0%);fill-opacity:1;" d="M 109.25 69.371094 C 110.101562 69.769531 110.851562 70.019531 110.949219 69.917969 C 111.300781 69.570312 110.800781 69.320312 109.25 68.972656 L 107.75 68.671875 Z M 109.25 69.371094 "/>
<path style=" stroke:none;fill-rule:nonzero;fill:rgb(0%,0%,0%);fill-opacity:1;" d="M 109 72.410156 C 109 72.507812 109.601562 72.957031 110.300781 73.453125 C 111.148438 74.003906 111.550781 74.050781 111.398438 73.652344 C 111.199219 73.105469 109 71.960938 109 72.410156 Z M 109 72.410156 "/>
<path style=" stroke:none;fill-rule:nonzero;fill:rgb(0%,0%,0%);fill-opacity:1;" d="M 112.648438 72.558594 C 112.300781 72.707031 112 73.15625 112 73.605469 C 112 74.351562 112.101562 74.351562 112.851562 73.554688 C 113.75 72.65625 113.648438 72.210938 112.648438 72.558594 Z M 112.648438 72.558594 "/>
<path style=" stroke:none;fill-rule:nonzero;fill:rgb(0%,0%,0%);fill-opacity:1;" d="M 109.5 76.640625 C 110.148438 77.1875 110.898438 77.488281 111.148438 77.339844 C 111.75 76.988281 111 76.390625 109.5 75.945312 L 108.25 75.644531 Z M 109.5 76.640625 "/>
<path style=" stroke:none;fill-rule:nonzero;fill:rgb(0%,0%,0%);fill-opacity:1;" d="M 107.5 78.832031 C 107.5 79.429688 110.449219 81.671875 110.699219 81.273438 C 110.851562 80.972656 110.199219 80.328125 109.25 79.730469 C 108.300781 79.179688 107.5 78.78125 107.5 78.832031 Z M 107.5 78.832031 "/>
<path style=" stroke:none;fill-rule:nonzero;fill:rgb(0%,0%,0%);fill-opacity:1;" d="M 108.050781 84.109375 C 109.199219 85.65625 109.851562 85.855469 109.351562 84.460938 C 109.199219 84.0625 108.550781 83.464844 108 83.164062 C 106.898438 82.566406 106.898438 82.617188 108.050781 84.109375 Z M 108.050781 84.109375 "/>
<path style=" stroke:none;fill-rule:nonzero;fill:rgb(0%,0%,0%);fill-opacity:1;" d="M 106.800781 87.398438 C 107.300781 88.195312 107.75 88.941406 107.800781 89.042969 C 107.851562 89.140625 108.050781 88.992188 108.199219 88.742188 C 108.351562 88.492188 107.898438 87.746094 107.148438 87.097656 L 105.851562 85.902344 Z M 106.800781 87.398438 "/>
<path style=" stroke:none;fill-rule:nonzero;fill:rgb(0%,0%,0%);fill-opacity:1;" d="M 103.050781 93.125 C 103.101562 93.523438 103.25 94.417969 103.5 95.117188 C 103.800781 96.164062 103.898438 96.210938 104.25 95.515625 C 104.449219 95.015625 104.25 94.21875 103.800781 93.523438 C 103.300781 92.828125 103 92.675781 103.050781 93.125 Z M 103.050781 93.125 "/>
<path style=" stroke:none;fill-rule:nonzero;fill:rgb(0%,0%,0%);fill-opacity:1;" d="M 38.898438 81.371094 C 39 82.367188 39.398438 83.363281 39.800781 83.714844 C 40.351562 84.160156 40.449219 84.011719 40.300781 82.667969 C 40.199219 81.820312 39.800781 80.773438 39.398438 80.375 C 38.800781 79.777344 38.75 79.878906 38.898438 81.371094 Z M 38.898438 81.371094 "/>
<path style=" stroke:none;fill-rule:nonzero;fill:rgb(0%,0%,0%);fill-opacity:1;" d="M 64.148438 87.199219 C 61.898438 88.046875 63.25 90.585938 65.5 89.886719 C 66.800781 89.488281 67.050781 88.34375 66.101562 87.496094 C 65.5 87 64.898438 86.898438 64.148438 87.199219 Z M 64.148438 87.199219 "/>
<path style=" stroke:none;fill-rule:nonzero;fill:rgb(0%,0%,0%);fill-opacity:1;" d="M 57.300781 86.300781 C 56 87.25 56.449219 88.84375 58.101562 89.042969 C 59.648438 89.242188 60.5 87.597656 59.5 86.402344 C 58.75 85.503906 58.449219 85.457031 57.300781 86.300781 Z M 57.300781 86.300781 "/>
<path style=" stroke:none;fill-rule:nonzero;fill:rgb(0%,0%,0%);fill-opacity:1;" d="M 50 117.527344 C 48.851562 117.875 48.851562 117.925781 49.851562 117.976562 C 50.449219 118.023438 51.101562 117.777344 51.25 117.527344 C 51.398438 117.226562 51.5 117.027344 51.398438 117.078125 C 51.300781 117.128906 50.699219 117.328125 50 117.527344 Z M 50 117.527344 "/>
<path style=" stroke:none;fill-rule:nonzero;fill:rgb(0%,0%,0%);fill-opacity:1;" d="M 47.398438 117.875 C 47.75 118.023438 48.199219 117.976562 48.351562 117.824219 C 48.550781 117.675781 48.25 117.527344 47.699219 117.578125 C 47.148438 117.578125 47 117.726562 47.398438 117.875 Z M 47.398438 117.875 "/>
<path style=" stroke:none;fill-rule:nonzero;fill:rgb(0%,0%,0%);fill-opacity:1;" d="M 53.648438 120.765625 C 53.648438 121.757812 53.851562 122.507812 54.199219 122.507812 C 54.5 122.507812 54.75 121.710938 54.800781 120.765625 C 54.800781 119.816406 54.550781 119.019531 54.25 119.019531 C 53.949219 119.019531 53.699219 119.816406 53.648438 120.765625 Z M 53.648438 120.765625 "/>
<path style=" stroke:none;fill-rule:nonzero;fill:rgb(0%,0%,0%);fill-opacity:1;" d="M 56.601562 119.269531 C 56.800781 119.519531 56.75 119.96875 56.449219 120.367188 C 56 120.8125 56.050781 121.011719 56.449219 121.011719 C 57.351562 121.011719 57.101562 121.910156 56.148438 122.15625 C 55.601562 122.308594 55.75 122.40625 56.601562 122.457031 C 57.898438 122.507812 58 122.355469 57.800781 120.914062 C 57.699219 120.015625 57.351562 119.21875 56.949219 119.121094 C 56.550781 118.972656 56.398438 119.070312 56.601562 119.269531 Z M 56.601562 119.269531 "/>
<path style=" stroke:none;fill-rule:nonzero;fill:rgb(0%,0%,0%);fill-opacity:1;" d="M 61.5 119.667969 C 61.101562 120.015625 60.699219 120.613281 60.601562 121.011719 C 60.5 121.410156 60.148438 121.910156 59.851562 122.109375 C 59.449219 122.355469 59.550781 122.507812 60.148438 122.507812 C 60.601562 122.507812 61 122.207031 61 121.808594 C 61 120.863281 63.398438 121.0625 64 122.058594 C 64.25 122.40625 64.601562 122.605469 64.75 122.40625 C 65.101562 122.109375 63.050781 119.019531 62.550781 119.019531 C 62.398438 119.019531 61.898438 119.320312 61.5 119.667969 Z M 63 120.566406 C 63 120.8125 62.800781 121.011719 62.5 121.011719 C 62.25 121.011719 62 120.664062 62 120.214844 C 62 119.816406 62.25 119.617188 62.5 119.769531 C 62.800781 119.917969 63 120.265625 63 120.566406 Z M 63 120.566406 "/>
<path style=" stroke:none;fill-rule:nonzero;fill:rgb(0%,0%,0%);fill-opacity:1;" d="M 67.25 120.765625 C 67.25 121.910156 67.5 122.507812 67.949219 122.507812 C 68.351562 122.507812 68.5 122.207031 68.300781 121.710938 C 68.148438 121.261719 68 120.515625 68 119.96875 C 68 119.46875 67.851562 119.019531 67.648438 119.019531 C 67.398438 119.019531 67.25 119.816406 67.25 120.765625 Z M 67.25 120.765625 "/>
<path style=" stroke:none;fill-rule:nonzero;fill:rgb(0%,0%,0%);fill-opacity:1;" d="M 70 119.371094 C 70.800781 119.769531 70.601562 121.410156 69.648438 121.957031 C 68.851562 122.40625 68.851562 122.457031 69.550781 122.507812 C 70.800781 122.507812 71.800781 121.113281 71.199219 120.117188 C 70.898438 119.667969 70.398438 119.269531 70.101562 119.21875 C 69.75 119.171875 69.699219 119.21875 70 119.371094 Z M 70 119.371094 "/>
<path style=" stroke:none;fill-rule:nonzero;fill:rgb(0%,0%,0%);fill-opacity:1;" d="M 73 120.765625 C 73 121.859375 73.25 122.507812 73.648438 122.507812 C 74.101562 122.507812 74.25 121.957031 74.101562 120.765625 C 74 119.816406 73.699219 119.019531 73.449219 119.019531 C 73.199219 119.019531 73 119.816406 73 120.765625 Z M 73 120.765625 "/>
<path style=" stroke:none;fill-rule:nonzero;fill:rgb(0%,0%,0%);fill-opacity:1;" d="M 79.148438 119.371094 C 77.5 120.015625 79.148438 122.554688 81.101562 122.457031 C 81.449219 122.457031 81.25 122.257812 80.648438 122.007812 C 79.398438 121.511719 79.101562 119.769531 80.148438 119.371094 C 80.449219 119.21875 80.550781 119.121094 80.25 119.121094 C 80 119.121094 79.449219 119.21875 79.148438 119.371094 Z M 79.148438 119.371094 "/>
<path style=" stroke:none;fill-rule:nonzero;fill:rgb(0%,0%,0%);fill-opacity:1;" d="M 82.398438 119.371094 C 82.75 119.519531 83.199219 119.46875 83.351562 119.320312 C 83.550781 119.171875 83.25 119.019531 82.699219 119.070312 C 82.148438 119.070312 82 119.21875 82.398438 119.371094 Z M 82.398438 119.371094 "/>
<path style=" stroke:none;fill-rule:nonzero;fill:rgb(0%,0%,0%);fill-opacity:1;" d="M 86.800781 119.769531 C 86.25 120.167969 85.949219 120.515625 86.148438 120.515625 C 86.351562 120.515625 86.300781 120.964844 86 121.511719 C 85.648438 122.207031 85.648438 122.507812 86 122.507812 C 86.25 122.507812 86.5 122.207031 86.5 121.808594 C 86.5 120.863281 88.898438 121.0625 89.5 122.058594 C 89.75 122.40625 90.101562 122.605469 90.25 122.40625 C 90.601562 122.109375 88.550781 119.019531 88.050781 119.019531 C 87.898438 119.019531 87.300781 119.371094 86.800781 119.769531 Z M 88.5 120.566406 C 88.5 120.8125 88.300781 121.011719 88 121.011719 C 87.75 121.011719 87.5 120.664062 87.5 120.214844 C 87.5 119.816406 87.75 119.617188 88 119.769531 C 88.300781 119.917969 88.5 120.265625 88.5 120.566406 Z M 88.5 120.566406 "/>
<path style=" stroke:none;fill-rule:nonzero;fill:rgb(0%,0%,0%);fill-opacity:1;" d="M 92.5 119.519531 C 92.5 119.769531 92.800781 120.015625 93.199219 120.015625 C 93.550781 120.015625 94.25 120.566406 94.699219 121.261719 C 95.648438 122.707031 96.5 122.90625 96.5 121.660156 C 96.5 121.210938 96.351562 121.011719 96.199219 121.160156 C 96 121.3125 95.449219 120.914062 94.898438 120.265625 C 93.949219 119.019531 92.5 118.574219 92.5 119.519531 Z M 92.5 119.519531 "/>
<path style=" stroke:none;fill-rule:nonzero;fill:rgb(0%,0%,0%);fill-opacity:1;" d="M 82.199219 121.511719 C 82.199219 122.058594 82.5 122.507812 82.851562 122.507812 C 83.199219 122.507812 83.5 122.058594 83.5 121.511719 C 83.5 120.964844 83.199219 120.515625 82.851562 120.515625 C 82.5 120.515625 82.199219 120.964844 82.199219 121.511719 Z M 82.199219 121.511719 "/>
<path style=" stroke:none;fill-rule:nonzero;fill:rgb(0%,0%,0%);fill-opacity:1;" d="M 92.5 121.710938 C 92.5 122.15625 92.75 122.507812 93 122.507812 C 93.300781 122.507812 93.5 122.308594 93.5 122.058594 C 93.5 121.757812 93.300781 121.410156 93 121.261719 C 92.75 121.113281 92.5 121.3125 92.5 121.710938 Z M 92.5 121.710938 "/>
<path style=" stroke:none;fill-rule:nonzero;fill:rgb(0%,0%,0%);fill-opacity:1;" d="M 76 122.007812 C 75.351562 122.40625 75.398438 122.507812 76.148438 122.507812 C 76.601562 122.507812 77 122.257812 77 122.007812 C 77 121.410156 76.949219 121.410156 76 122.007812 Z M 76 122.007812 "/>
<path style=" stroke:none;fill-rule:nonzero;fill:rgb(0%,0%,0%);fill-opacity:1;" d="M 102.601562 125.445312 C 102.949219 125.894531 103.25 126.339844 103.351562 126.441406 C 103.398438 126.539062 103.398438 126.191406 103.351562 125.644531 C 103.351562 125.097656 103 124.648438 102.648438 124.648438 C 102.148438 124.648438 102.148438 124.847656 102.601562 125.445312 Z M 102.601562 125.445312 "/>
</g>
</svg>
